<?xml version="1.0" encoding="UTF-8"?>
<svg id="Capa_2" data-name="Capa 2" xmlns="http://www.w3.org/2000/svg" viewBox="0 0 775.43 775.43">
  <defs>
    <style>
      .cls-1 {
        fill: #fff;
      }

      .cls-2 {
        fill: #269fbd;
      }

      .cls-3 {
        fill: #70bcd4;
      }

      .cls-4 {
        fill: #2688d7;
      }

      .cls-5 {
        fill: #2b86d7;
      }

      .cls-6 {
        fill: #228cd7;
      }

      .cls-7 {
        fill: #2589d7;
      }

      .cls-8 {
        fill: #bfdef0;
      }

      .cls-9 {
        fill: #94bfd3;
      }

      .cls-10 {
        fill: #69b9d4;
      }

      .cls-11 {
        fill: #a8bed3;
      }

      .cls-12 {
        fill: #148bd7;
      }

      .cls-13 {
        fill: #1297d6;
      }

      .cls-14 {
        fill: #4ba9d5;
      }

      .cls-15 {
        fill: #399fd6;
      }
    </style>
  </defs>
  <g id="Capa_1-2" data-name="Capa 1">
    <g>
      <path class="cls-1" d="m0,0C258.48,0,516.95,0,775.43,0c0,258.48,0,516.95,0,775.43-258.48,0-516.95,0-775.43,0C0,516.95,0,258.48,0,0Zm333.31,207.22l-.02.04c-.28.09-.4.25-.25.53-.09.16-.18.32-.26.48-.46.19-.6.55-.51,1.02-.05.13-.1.26-.16.4-.26.13-.4.33-.36.63v.03c-.29.09-.42.26-.28.55l-.25.47c-.28.1-.41.26-.26.56-.08.16-.17.32-.25.48-.28.09-.41.25-.28.55-.08.16-.16.32-.25.47-.27.1-.41.26-.27.56-.08.16-.16.32-.25.47-.27.1-.41.27-.29.56-.09.14-.17.29-.25.44-.28.11-.42.28-.28.59-.25.49-.5.99-.75,1.48-.28.1-.42.28-.3.59-.08.14-.15.29-.22.44-.28.11-.41.29-.3.59-.25.49-.49.97-.74,1.46-.28.11-.41.29-.29.6-.08.14-.15.29-.21.44-.41.21-.59.55-.54,1.01h0c-.26.12-.4.31-.33.61-.07.14-.13.28-.19.42-.26.12-.4.31-.31.61-.07.14-.14.28-.2.43-.27.11-.41.29-.34.6-3.43,6.75-6.84,13.5-10.28,20.24-17.44,34.15-34.89,68.29-52.34,102.44-.42.83-.69,1.78-1.6,2.28-5.15,0-10.29-.02-15.44-.02-11.23,0-22.47,0-33.7.01-4.66,0-9.32,0-13.98.01-20.06-.03-40.12-.05-60.18-.07-.42,0-.84.12-1.26.19-1.61.92-1.11,2.34-.83,3.66,1.17,5.46,2.37,10.92,3.56,16.37,6.71,30.64,13.43,61.28,20.14,91.92,7.1,32.4,14.21,64.8,21.32,97.2,3.48,15.86,6.97,31.73,10.45,47.59,3.11,14.18,6.23,28.37,9.32,42.55.24,1.11.33,2.25,1.67,2.65.17.21.34.43.5.64.77.82,1.78.48,2.68.48,20.91.04,41.81.06,62.72.06,5.07,0,10.15-.06,15.22-.1,8.43,0,16.86.03,25.28.01,4.99,0,9.97.18,14.96-.11.36,0,.72,0,1.07.01,1.02.2,2.04.2,3.06,0,.35,0,.7,0,1.06,0,.17,0,.34,0,.51,0,.87,0,1.74,0,2.6-.01.85.21,1.7.19,2.55.02.87,0,1.74,0,2.61,0,.51.15,1.02.16,1.53,0,1.22.06,2.44.13,3.66.19,2.03.88,4.16.24,6.23.4,45.8.02,91.6.05,137.4.06,1.2,0,2.41-.05,3.61-.08,9.98.01,19.95.05,29.93.02,6.88-.02,13.76.22,20.64-.1.53,0,1.06,0,1.59.01,1.19.2,2.39.2,3.58,0,9.27.05,18.55.09,27.82.16.94,0,1.68-.23,2.18-1.05,1.44-.41,1.23-1.78,1.45-2.76,3.03-13.33,5.99-26.67,8.98-40,6.15-27.42,12.32-54.84,18.47-82.26,6.4-28.52,12.79-57.04,19.18-85.55,4.47-19.96,8.95-39.92,13.42-59.88,2.09-9.31,4.14-18.63,6.28-27.92.26-1.14.17-2-.66-2.78-.31-.53-.82-.56-1.35-.56-6.96.02-13.93.05-20.89.07-19.8-.02-39.6-.03-59.4-.06-4.65,0-9.29-.07-13.94-.11-.55-.56-1.26-.41-1.93-.41-2.47,0-4.93.01-7.4.02-6.7,0-13.39-.01-20.09-.02-1.31-.47-2-1.46-2.61-2.67-2.6-5.14-4.94-10.41-7.79-15.42-.18-.48-.33-.97-.56-1.43-5.73-11.56-11.47-23.11-17.22-34.66-20.39-40.97-40.79-81.94-61.19-122.9-4.14-8.32-8.2-16.67-12.44-24.94-3.65-7.11-8.66-12.73-16.89-14.69-.77-.18-1.77.09-2.38-.71-.65-.87-1.55-.58-2.41-.52v-.09c-2.75-.81-5.5-.83-8.26-.01-4.21.94-8.44,1.81-11.91,4.63-2.23.73-3.64,2.47-5.06,4.19-2.75,3.32-4.83,7.05-6.71,10.92-3.25,6.7-6.84,13.23-9.93,20.01-.5.47-.77,1.05-.82,1.73-.07.13-.12.27-.15.41-.27.09-.42.27-.41.57-.07.12-.15.25-.23.37-.6.38-.89.94-.89,1.65-.01.16-.03.32-.05.48-.25.14-.39.33-.33.63-.07.14-.13.28-.17.42-.28.11-.42.3-.35.61-.06.14-.11.29-.15.44-.27.1-.42.28-.41.57-.36.41-.65.86-.75,1.4-1.05,1.02-1.59,2.31-1.94,3.7-.22.49-.43.97-.65,1.46-.93.86-1.38,1.93-1.45,3.17-.06.12-.12.25-.18.37-1.18.97-1.71,2.27-1.9,3.75h0c-1.68,2-2.72,4.33-3.47,6.81l-.03.06c-.29.05-.41.2-.26.49-.09.18-.18.35-.26.53-.28.05-.43.21-.43.49-.08.14-.13.29-.14.45-.25.11-.41.28-.38.58-.08.15-.12.3-.13.47-.24.13-.38.3-.23.58-.08.17-.17.33-.25.5-.27.09-.39.25-.23.53-.14.29-.28.58-.42.87-.27.12-.41.32-.37.63Z"/>
      <path class="cls-5" d="m259.9,350.31c.9-.5,1.18-1.46,1.6-2.28,17.45-34.14,34.9-68.29,52.34-102.44,3.44-6.74,6.85-13.49,10.28-20.24.25-.12.36-.33.34-.6.06-.15.13-.29.2-.43.24-.14.34-.34.31-.61.06-.14.12-.28.19-.42.24-.13.35-.33.33-.6,0,0,0,0,0,0,.41-.21.56-.56.54-1.01.06-.15.14-.3.21-.44.1-.2.19-.4.29-.6.25-.49.49-.97.74-1.46.23-.13.32-.33.3-.59.06-.15.14-.3.22-.44.1-.2.2-.39.3-.59.25-.49.5-.99.74-1.48.09-.2.19-.4.28-.59.07-.15.16-.3.25-.44.1-.19.19-.38.29-.56.08-.16.16-.32.25-.47.09-.19.18-.37.27-.56.08-.16.16-.32.24-.47.09-.19.18-.37.28-.55.08-.16.17-.32.25-.48.09-.19.18-.37.26-.56.08-.16.17-.31.25-.47.09-.18.18-.37.27-.55,0,0,.01-.03.01-.03.27-.13.39-.34.36-.63.05-.13.1-.27.16-.4.39-.23.52-.59.51-1.02.09-.16.18-.32.26-.48.08-.18.17-.35.25-.53,0,0,.02-.04.02-.04.26-.13.39-.33.37-.62.14-.29.28-.58.42-.87.08-.18.16-.35.23-.53.08-.17.17-.33.25-.5.2-.15.29-.33.23-.58,0-.16.05-.32.13-.47.27-.1.43-.27.38-.58,0-.16.05-.31.14-.45.25-.07.41-.22.43-.49.09-.18.18-.35.26-.53.09-.16.17-.33.26-.49,0,0,.03-.06.03-.06,1.81-1.94,2.82-4.29,3.47-6.82,0,0,0,0,0,0,1.16-.98,1.79-2.23,1.9-3.75.06-.12.12-.25.18-.37,1.06-.8,1.46-1.89,1.45-3.17.22-.49.43-.97.65-1.46,1.47-.8,1.86-2.17,1.94-3.7.1-.55.38-1,.75-1.4.27-.09.43-.27.41-.57.04-.15.09-.3.15-.44.26-.12.38-.32.35-.61.05-.14.11-.28.17-.42.25-.13.37-.34.33-.63.02-.16.04-.32.05-.48.93-.2.93-.92.89-1.65.08-.12.15-.24.23-.37.27-.09.43-.27.41-.57.04-.14.09-.28.15-.41.57-.16.76-.61.89-1.12.87-.54,1.12-1.49,1.54-2.33,3.7-7.37,7.4-14.74,11.11-22.11.38-.76.71-1.61,1.28-2.22,2.38-2.55,4.02-5.78,7.07-7.72.45-.29.63-.8.64-1.35,3.47-2.82,7.71-3.69,11.91-4.63,2.75,0,5.51,0,8.26.01,0,0,0,.09,0,.09.69.68,1.59.41,2.41.52.61.8,1.61.53,2.38.71,8.22,1.96,13.24,7.58,16.89,14.69,4.24,8.27,8.3,16.62,12.44,24.94,20.4,40.97,40.79,81.93,61.19,122.9,5.75,11.55,11.48,23.1,17.22,34.66.23.46.37.95.56,1.43-1.48.28-.65,1.12-.36,1.7,2.54,5.15,5.15,10.27,7.67,15.42.67,1.37.94,3.02,2.94,3.14.19.01.52.31.52.47.01,1.29.57,2.07,1.89,2.24.64,1.92,2.2,2.64,3.98,3.13.44.12,1.02.45.87,1.11-.19.81-.76.43-1.22.3-.57-.16-.95.1-1.37.47-.52.47-1.05.18-1.22-.35-.83-2.5-2.68-2.53-4.78-2.1-1.73.35-1.84.25-1.76-1.54.02-.34.16-.7-.16-.95-.44-.33-.8.01-1.16.2-.58.3-.94.88-.97,1.45-.06,1.17-.81,2.03-1.1,3.06-.3,1.07-.71,1.63-1.87,1.7-1.28.07-1.15-1.03-1.6-1.65-.06-.08-.3-.04-.47-.05-.74,1.05.31,2.55-1.06,3.83-.25-2.44-2.19-2.6-3.69-3.33-.31-.15-.65-.3-.94,0-.33.36-.32.85-.09,1.2.27.42.78.68,1.05,1.1.8,1.23.35,2.53-1.04,3.17-1.19.55-1.84.23-2.42-1.01-.54-1.16.46-1.27,1.04-1.66.48-.33.83-.72.44-1.25-.39-.51-.99-.36-1.35.03-.9.97-1.97,1.3-3.25,1.17-.43-.04-.99-.03-1.16.39-.66,1.62-1.82,2.38-3.56,2.4-.27,0-.62.34-.79.61-1.13,1.82-3.52,1.63-4.9,3.08-.46.48-1.17.08-1.59-.39-.8-.92-1.65-.97-2.77-.54-.78.3-1.67.1-2.54-.08-1.26-.26-2,.54-1.34,1.52,1.11,1.62-.05,3.15.14,4.71.09.73-.72,1.44-1.39,1.06-1.13-.65-2.44-1.1-3.2-2.33-.84-1.35.33-2.01.83-2.93.07-.12-.01-.32-.03-.49-1.73-.18-3.05.41-3.22,1.92-.18,1.61-.82,2.09-2.29,1.94-.54-.05-.98.29-1.35.66-.51.49-1.05.89-1.8.86-1.19-.05-1.34.67-1.42,1.65-.17,2.41-.85,2.9-3.38,2.58-.05-.99,1.08-1.31,1.25-2.16.19-.99.15-1.87-.99-2.35-1.17-.49-1.61.25-1.86,1.12-.24.83-.32,1.66-1.34,1.98-.31.1-.46.61-.31.9.84,1.68.21,2.83-1.19,3.83-.28.2-.32.77-.41,1.19-.12.53-.23,1.05-.95.91-.54-.11-.54-.58-.59-1.01-.29-2.33.08-4.9-2.27-6.52-.12-.08-.2-.3-.2-.46-.03-1.56-1.01-1.69-2.27-1.69-1.34,0-2.31.22-2.69,1.76-.2.8-.82,1.49-1.28,2.22-.61.94-.52,1.71.36,2.47.63.54,1.43,1.15.86,2.17-.52.93-1.48.69-2.32.7-.25,0-.5-.09-.76-.13-1.55-.21-1.87.09-1.64,1.54.46,2.92.29,3.08-2.44,2.24-.08-.03-.17-.03-.25-.07-2.5-1.17-4.3.01-6.09,1.58.59.74,1.25.46,1.81.55.44.07,1.01.16.97.65-.14,1.59,1.11,2.44,1.74,3.62.19.36.52.77.09,1.15-.38.34-.81.15-1.2-.04-1.19-.58-2.08-1.37-2.63-2.67-.79-1.87-1.94-2.58-3-1.84-1.23.86-2.02.58-2.89-.36-.37-.4-.87-.56-1.41-.52-1.1.09-1.93-.34-2.79-1.04-1.09-.88-1.79-.59-2.19.85-.19.69-.38,1.3-.9,1.79-.8.75-.52,1.18.31,1.77,1.47,1.05,1.52,2.36.05,3.19-1.4.79-1.35,1.65-.56,2.67.57.73.58,1.39.25,2.15-.28.66-.23,1.35-.24,2.03-57.86,0-115.72,0-173.58,0,.13-1.02-.84-2.16.36-3.08.09-.07.01-.5-.1-.7-.21-.35-.62-.35-.92-.2-.37.19-.77.45-.99.79-1.57,2.49-4.12,2.02-6.42,2.06-1.1.02-1.44-.9-.57-1.77,1.19-1.18.35-2.58.75-3.82.12-.38-.37-.76-.79-.9-.33-.11-.86-.1-.9.24-.24,2.06-3.38,2.98-1.67,6-1.51-.77-2.45-1.21-3.62-.76-.67.26-1.53.06-2.3.04-.55-.02-1.28-.34-1.2-.76.24-1.38-.71-2.87.33-4.14.55-.67.74-2.05,1.99-1.58.93.35.46,1.29.27,2.02-.1.37.03.67.44.78.44.12,1.18,0,1.13-.27-.27-1.4.55-2.56.63-3.85.02-.25-.36-.55-.61-.77-1.36-1.2-3.72-.02-4.8-1.98-.06-.1-.63.07-.96.13-.44.08-.87.1-1.08-.4-.19-.45.04-.83.31-1.18.65-.83,1.54-1.33,2.45-1.84,1.3-.73,1.96-2.08,1.65-3.17-.12-.42-.37-.79-.88-.78-.46,0-.55.41-.54.74.03,1.03-.35,1.59-1.45,1.68-.38.03-.8.34-1.07.64-1.03,1.15-2.06,1.82-3.48.52-.37-.34-1.01-.3-1.43.08-.44.39-.34.93-.2,1.44.15.55.9.87.56,1.64-.7.21-1.42.46-2.16.65-.54.14-1.02-.04-1.35-.52-.77-1.09-.27-4,.84-4.85.32-.24.82-.35.58-.98-1.26-.65-1.86.87-3.15,1.05-.06-2.04-.04-3.89,1.53-5.38.33-.31.5-.75.24-1.16-.33-.53-.7-.12-1.09.03-1.35.51-1.72.28-1.74-1.03,0-.44.62-.93-.1-1.32-.17.03-.35.02-.5.09-1.18.51-2.88.71-3.42,1.61-.93,1.57-1.86,1.2-3.13.98-.47-.08-.94.68-1.13,1.28-.12.41-.12.86-.29,1.24-.22.51-.66.83-1.24.66-.67-.2-.67-.78-.4-1.24,1.31-2.27.98-4.44-.3-6.58-.09-.15-.16-.31-.2-.47-.06-.25-.09-.55.18-.67.22-.1.52-.16.73-.08.75.29,1.25.92,1.75,1.49.9,1.03,1.7,1.04,2.48-.08.41-.6.69-1.01,1.62-.55,1.48.74,2.46-.07,2.16-1.67-.14-.75-.52-1.45-.73-2.2-.31-1.07-.3-2.05.93-2.59.59-.26,1-.67.97-1.38-.05-.96.42-1.35,1.36-1.49.89-.13,1.42-.73,1.06-1.66-.42-1.06-1.21-.72-1.92-.31-1.2.7-2.14.56-2.68-.82-.41-1.04-1.17-1.38-2.24-1.28-.5.05-1.04.09-1.47-.3-.34-.82.82-1.81-.25-2.56-.71-.06-1.05.57-1.62.77-1.23.42-1.31.99-.12,1.64.92.51.69,1.22.33,1.97-.23.48-1.22.53-.77,1.4.82.35,1.69.19,2.54.17.9-.02,1.68.3,2.49.57.61.21.87.76.52,1.2-1.27,1.58-.76,3.21-.36,4.89.16.66.12,1.45-.61,1.83-.84.44-1.31-.28-1.64-.82-.44-.73-1.28-1.33-1.25-2.21.06-1.73-.93-2.37-2.36-2.88-1.7-.62-1.81-.98-1.46-2.9.16-.87.33-1.78-.38-2.43-1.43-1.32-2.39-3.31-4.73-3.41-.49-.02-1-.28-1.44-.54-1.08-.63-1.82-.61-2.5.65-.54.99-1.07.89-1.63-.06-.39-.68-.93-1.59-.42-2.16.97-1.06,1.39-2.55,2.64-3.35.43-.27.85.02,1.09.4.46.72.85.78,1.66.35,1.58-.84,3.27-1.5,5.12-1.52.71,0,1.15-.29,1.21-1.03h1.03c.69.95,1.38.26,2.07,0,1.92,0,3.84,0,5.76,0,.72,0,1.35-.09,1.46-.98.35,0,.7,0,1.05,0,.11.93.76,1.12,1.47.89,1.49-.49,2.95-.6,4.46-.12.55.18.68-.32.78-.74.36,0,.72,0,1.07-.01.54.59,1.26.44,1.92.44,11.21,0,22.41,0,33.62,0,.74,0,1.57.22,2.13-.53.02-.15.03-.3.04-.45Zm134.8-118.36c-.16-.18-.32-.36-.48-.54-.18-1.63-.73-3.06-2.1-4.07l-.03-.05c0-.56.13-1.15-.52-1.49l-.03-.04c.03-.42-.04-.8-.49-.98l-.03-.05c.04-.42-.03-.8-.49-.98l-.03-.06c.04-.44-.05-.81-.5-1.01-.05-.4-.14-.79-.5-1.04-.16-.17-.32-.33-.49-.5l-.04-.03c.11-.79-.05-1.56-.6-2.1-.65-.64-.77.03-.91.51-1.36,2.38-2.82,4.7-4.06,7.14-7.62,14.93-14.97,30-22.66,44.89-7.73,14.97-15.12,30.12-22.85,45.09-4.29,8.31-8.52,16.65-12.76,24.98-1.29,2.53-2.55,5.07-3.8,7.62-.33.67-.9,1.37,0,2.05-.19.26-.38.53-.75,1.05,44.82,0,89.43,0,134.04,0,.28.4.69.59,1.1.35.49-.29.26-.75.04-1.12-.17-.29-.41-.53-.62-.8-4.32-8.36-8.43-16.82-12.7-25.2-2.21-4.33-4.74-8.51-6.67-12.99-.2-.47-.43-.94-.94-1.17.08-.35-.02-.64-.31-.86-.12-.36-.06-.92-.63-.87-.37.03-.41.44-.47.76-.35-.33-.7-.66-1.05-.99-.09-.69-.01-1.42-.48-2.01q.67-1.74-.79-2.06c-.06.14-.17.21-.31.22,0-.25.01-.51.02-.76.74-1.42.52-1.94-1.07-2.6-1.84-2.77-3.16-5.82-4.6-8.8,1.12-.91.19-1.74-.19-2.49-3.05-6.03-6.18-12.02-9.24-18.04-3.56-7.04-7.03-14.12-10.63-21.14-1.11-2.17-2.01-4.5-3.74-6.31l-.02-.04c.08-.45.02-.83-.5-.99l-.03-.03c.11-.89-.28-1.56-.92-2.13-.02-.42-.11-.8-.51-1.03-.22-1.18-.73-2.22-1.55-3.11-.02-.42-.12-.8-.52-1.03-.02-.42-.12-.8-.52-1.03-.02-.42-.12-.8-.52-1.03-.16-.18-.32-.36-.48-.54-.05-.56.03-1.16-.55-1.53-.02-.42-.12-.8-.52-1.03Zm42.66,154.6c.02-.35-.19-.48-.44-.52-.51-.08-.77.19-.8.69-.01.28.14.49.41.52.51.05.73-.28.83-.68Z"/>
      <path class="cls-4" d="m418.45,404.5c.02-.68-.04-1.37.24-2.03.32-.75.32-1.42-.25-2.15-.79-1.01-.84-1.88.56-2.67,1.47-.83,1.42-2.14-.05-3.19-.83-.59-1.11-1.02-.31-1.77.52-.49.71-1.11.9-1.79.4-1.44,1.1-1.74,2.19-.85.86.7,1.69,1.13,2.79,1.04.53-.04,1.04.12,1.41.52.87.93,1.66,1.21,2.89.36,1.06-.74,2.21-.03,3,1.84.55,1.3,1.44,2.09,2.63,2.67.39.19.82.38,1.2.04.43-.39.1-.8-.09-1.15-.62-1.18-1.88-2.03-1.74-3.62.04-.49-.53-.57-.97-.65-.56-.1-1.21.19-1.81-.55,1.79-1.57,3.6-2.75,6.09-1.58.08.04.17.04.25.07,2.73.84,2.9.68,2.44-2.24-.23-1.45.09-1.75,1.64-1.54.25.03.51.13.76.13.84,0,1.8.23,2.32-.7.57-1.01-.23-1.63-.86-2.17-.89-.76-.97-1.53-.36-2.47.46-.72,1.08-1.42,1.28-2.22.38-1.53,1.35-1.75,2.69-1.76,1.26,0,2.24.13,2.27,1.69,0,.16.08.38.2.46,2.35,1.62,1.98,4.19,2.27,6.52.05.43.06.9.59,1.01.71.14.83-.38.95-.91.09-.41.13-.99.41-1.19,1.4-1,2.03-2.15,1.19-3.83-.14-.29,0-.8.31-.9,1.02-.32,1.1-1.15,1.34-1.98.25-.86.69-1.61,1.86-1.12,1.13.47,1.18,1.35.99,2.35-.17.85-1.3,1.17-1.25,2.16,2.52.31,3.21-.17,3.38-2.58.07-.99.23-1.71,1.42-1.65.75.03,1.3-.37,1.8-.86.38-.37.81-.71,1.35-.66,1.47.15,2.11-.33,2.29-1.94.17-1.51,1.48-2.1,3.22-1.92.01.17.09.37.03.49-.49.91-1.67,1.58-.83,2.93.77,1.23,2.08,1.68,3.2,2.33.66.38,1.48-.33,1.39-1.06-.2-1.56.96-3.08-.14-4.71-.67-.98.08-1.78,1.34-1.52.86.18,1.76.38,2.54.08,1.11-.43,1.97-.38,2.77.54.41.48,1.13.88,1.59.39,1.38-1.46,3.77-1.26,4.9-3.08.17-.27.52-.61.79-.61,1.73-.03,2.89-.79,3.56-2.4.17-.42.73-.43,1.16-.39,1.28.13,2.35-.2,3.25-1.17.37-.39.97-.54,1.35-.03.39.52.04.92-.44,1.25-.57.39-1.57.5-1.04,1.66.57,1.24,1.23,1.56,2.42,1.01,1.39-.64,1.84-1.94,1.04-3.17-.27-.42-.78-.68-1.05-1.1-.23-.35-.24-.84.09-1.2.28-.3.62-.16.94,0,1.5.72,3.44.88,3.69,3.33,1.37-1.28.32-2.78,1.06-3.83.17.01.41-.03.47.05.45.63.32,1.73,1.6,1.65,1.16-.07,1.57-.63,1.87-1.7.29-1.03,1.04-1.89,1.1-3.06.03-.56.39-1.14.97-1.45.36-.19.73-.53,1.16-.2.33.25.18.61.16.95-.08,1.79.03,1.9,1.76,1.54,2.1-.43,3.95-.4,4.78,2.1.18.53.71.82,1.22.35.41-.37.8-.63,1.37-.47.46.13,1.04.51,1.22-.3.15-.65-.42-.98-.87-1.11-1.79-.49-3.34-1.21-3.98-3.13-1.32-.17-1.88-.95-1.89-2.24,0-.17-.33-.46-.52-.47-2-.11-2.27-1.76-2.94-3.14-2.53-5.16-5.13-10.27-7.67-15.42-.29-.58-1.12-1.43.36-1.7,2.85,5.01,5.19,10.28,7.79,15.42.61,1.21,1.3,2.2,2.61,2.67.65.83,1.58.51,2.39.52,3.17.07,6.34.09,9.51.12.15.21.31.22.47.02,1.23,0,2.46,0,3.69,0,1.31.73,2.73.2,4.08.36,14.12,0,28.25.01,42.37.02.43,1.69,1.82.98,2.78.98,19.74.04,39.48.03,59.21.03-.05.77-.01,1.56-.17,2.31-1.3,6.19-2.95,12.29-4.16,18.51-.91,4.68-2.11,9.32-3.13,13.99-1.94,8.94-4.06,17.84-6,26.78-1.29,5.93-2.73,11.83-4.07,17.76-1.92,8.51-3.82,17.02-5.72,25.53-1.01-.09-2.13.32-3.01-.31-1.19-.84-2.03-.66-2.68.59-.21.41-.43.75-.95.61-.52-.14-.48-.61-.59-1.01-.52-1.84-.59-1.91-2.57-1.22-.68.24-1.15-.1-1.72-.15-1.63-.17-2.33.78-1.87,2.35.33,1.13,1.52-.24,1.88.87-.51.67-.95,1.57-1.66,2.1-2.3,1.74-2.04,2.73-4.96.6-.59-.43-1.31-1.02-2.1-.48-1.07.71-2.12.53-3.15.07-1.32-.59-1.94.14-2.35,1.17-.18.45-.08,1.01-.1,1.53-.81-.04-1.55.08-1.99.88-.66,1.19-1.44,1.49-2.72.66-1.34-.87-2.76.15-4.15.23-.37.02-.46.58-.32.86.77,1.59-.09,2.18-1.44,2.55-.31.09-.83.3-.84.49-.13,1.68-2.2,2.42-2.01,4.25.04.34-.16.7-.59.68-.36-.02-.61-.27-.75-.61-.21-.5-.18-1.01,0-1.51.45-1.28-.26-2.33-.74-3.4-.31-.69-.82-1.07-1.64-.55-1.09.69-2.62.77-2.92,2.47-.12.68-.88.79-1.5.71-1.3-.16-1.81.78-2.36,1.64-.5.78-.26,1.67-.3,2.52-.03.72-.06,1.37-1,1.52-2.26.35-3.22,1.76-3.14,3.97.03.84-.48,1.24-1.16,1.5-.72.27-1.13-.24-1.5-.71-.63-.8.06-1.16.53-1.67.8-.88.68-1.2-.46-1.49-.32-.08-.68-.03-1.03-.03-.19-1.42.72-2.71.53-4.13,1.02.06,2.12-.59,3,.58.54.71,1.28.21,1.77-.24.59-.55,0-1.1-.25-1.58-.29-.58-.87-1.03-1.41-.47-.88.9-1.73.2-2.59.15,1.01-4.49,2-8.98,3.03-13.47,1.21-5.32,2.48-10.63,3.66-15.96,2.03-9.16,4.02-18.32,5.99-27.49.8-3.75,1.93-7.43,2.29-11.27.29-.19.54-.45.25-.75-.29-.3-.56-.07-.75.22-20.91.17-41.82-.26-62.72-.46-20.94-.2-41.88-.05-62.82-.05-.06-.56.14-1.33-.68-1.43-.98-.12-1.31.58-1.39,1.43-3.96,0-7.92,0-11.88,0-.03-.32-.06-.72-.4-.78-.56-.1-.56.4-.63.78-2.24,0-4.48,0-6.72,0-.33-3.36-2.88-.15-4.14-1.36-.64-.61-1.44.38-1.54,1.36-1.21,0-2.41,0-3.62,0Zm111.47-51.48c.92,1.18,1.98,2.02,1.81,3.59-.02.22.18.47.32.69.4.66,1.07.67,1.37,0,.17-.38.21-.83.24-1.25.08-1.11.93-1.44,1.59-.98,1.47,1.03,2.79,1.04,4.17-.1.55.79.33,1.71.96,2.25.37.31.71.89,1.27.41.39-.33.25-.9-.08-1.14-1.28-.96-1.14-2.08-.11-3.47h-11.56Zm-105.93,47.72c1-2.05,1.71-3.46,2.39-4.89.26-.54.58-1.17-.22-1.52-.55-.24-1.09.06-1.26.57-.34.98-.79,1.33-1.87.93-.65-.24-1.64-.4-1.9.67-.26,1.02.39,1.64,1.27,1.94.87.29,1.62.64,1.61,2.3Zm103.91-47.27c-.7-.79-1.41-.61-2.04-.62-2.23,0-4.47,0-6.7.02-.37,0-.68.15-.75.55-.03.14.06.4.16.45,1.22.53,2.6,1.75,3.67,1.33,1.78-.7,3.68-1.01,5.66-1.74Zm1.59,4.14c-.02-1.1-.64-1.68-1.61-1.63-.9.05-1.38.54-1.43,1.44-.05.98,1,2.23,1.8,2.04,1-.23,1.1-1.14,1.24-1.86Zm-35.96,10.29c.55.61,1.22.48,1.78.63,1.35.37,1.77,0,1.64-1.27-.07-.69-.22-1.45-.9-1.74-.69-.3-1.04.44-1.45.83-.43.4-.95.76-1.06,1.55Zm42.16-6.43c.77-.12,1.28-.67,1.47-1.46.18-.75-.84-1.78-1.79-1.83-.74-.04-1.07.44-1.17,1.1-.14.89.64,2.09,1.48,2.19Zm14.5-8.6c-.55,0-1.06.13-1.28.68-.28.7.37.85.77,1.1.29.18.61.31.92.46.48.23,1.02.47,1.39-.06.44-.62-.01-1.12-.44-1.57-.37-.39-.81-.63-1.37-.61Zm-102.8,27.36c.54-.08,1.19.1,1.27-.61.05-.46-.37-.72-.74-.92-.3-.16-.6-.34-.92-.41-.57-.14-1.27-.32-1.52.41-.28.8.25,1.26.99,1.45.32.08.67.07.93.09Zm-1.56,8.28c-.71.02-1.33.26-1.45,1.07-.12.84.49.95,1.12.96.79,0,1.63-.07,1.63-1.09,0-.69-.65-.89-1.3-.93Zm97.99-35.46c-.49.79.29,1.43.23,2.17-.03.37.3.6.66.63.45.04.81-.18,1.05-.56.25-.39.34-.86-.03-1.15-.57-.44-1.04-1.12-1.91-1.09Zm-95.48,30.9c.04-.75-.33-1.12-1.07-1.12-.6,0-1.3-.06-1.34.79-.03.7.44,1.09,1.11,1.19.66.09,1.2-.05,1.3-.85Zm16.91-6.17c-.29.93.28,1.59.32,2.34.02.37.38.53.76.49.42-.04.59-.36.62-.7.07-1.18-.5-1.85-1.69-2.13Zm145.77,74.86c-.19-.62-.71-.63-1.23-.56-.64.1-1.18.42-1.02,1.16.12.54.59.85,1.17.62.53-.22,1.16-.41,1.08-1.22Zm-11.99,4.99c.72.59,1.41,1.22,2.39.89.3-.1.27-.44.13-.65-.68-.97-1.58-.69-2.52-.25Zm-85.05-87.72c0-.33,0-.82-.58-.82-.47,0-.74.37-.82.82-.09.48.1.86.62.9.51.03.74-.31.78-.89Zm.47-6.34c-.01-.43-.14-.74-.54-.79-.69-.09-.88.35-.88.92,0,.34.05.73.48.76.64.05.85-.42.94-.9Zm-82.4,35.05c.4-.17.76-.42.69-.91-.07-.44-.34-.77-.84-.72-.43.04-.47.42-.49.75-.02.45.09.83.64.88Zm47.58-20.48c0,.51.28.79.73.86.5.08.81-.27.89-.69.07-.37-.24-.6-.61-.62-.41-.02-.86-.07-1.01.46Zm-57.77,21.78c-.38.02-.68.2-.63.6.04.35.33.63.67.67.4.05.61-.25.59-.62-.02-.37-.27-.59-.64-.65Zm16.33-5.05c-.31.03-.49.17-.43.47.06.35.3.59.63.69.25.08.5-.07.52-.35.03-.49-.29-.72-.71-.81Zm5.88-3.15c0-.35-.17-.52-.46-.47-.35.06-.59.3-.69.63-.08.25.07.5.35.52.49.03.72-.29.81-.67Zm94.28-33.99c-.29,0-.47.17-.45.43.02.21.11.56.25.6.39.12.57-.17.58-.52.01-.25-.12-.44-.39-.51Zm-111.07,40.3c-.29,0-.47.17-.45.43.02.21.11.56.25.6.39.12.57-.17.58-.52.01-.25-.12-.44-.39-.51Zm36.4-16.69c.07-.32-.14-.48-.38-.49-.21-.01-.5.06-.62.21-.16.19-.03.46.21.56.33.13.62.05.79-.28Zm134.41,70.38c-.06.14-.12.29-.19.43.14.06.32.2.42.16.1-.04.13-.26.19-.41-.14-.06-.29-.12-.43-.18Zm-8.83,7.92c-.14-.06-.32-.2-.42-.16-.1.04-.13.26-.19.41.14.06.32.2.42.16.1-.04.13-.26.2-.41Z"/>
      <path class="cls-15" d="m200.98,652.38c-1.34-.39-1.42-1.54-1.67-2.65-3.1-14.19-6.21-28.37-9.32-42.55-3.48-15.86-6.97-31.73-10.45-47.59-7.11-32.4-14.21-64.8-21.32-97.2-6.72-30.64-13.43-61.28-20.14-91.92-1.2-5.46-2.39-10.91-3.56-16.37-.28-1.33-.79-2.74.83-3.66,0,.13,0,.26.03.39,0,.33-.01.66-.02.99.63,3,1.25,6.01,1.9,9.01,1.43,6.6,2.87,13.19,4.3,19.78,1.79,8.26,3.56,16.53,5.38,24.78.72,3.25,1.68,6.45,2.3,9.72,1.83,9.65,4.18,19.19,6.25,28.79.97,4.51,2.04,9.01,2.95,13.51,1.27,6.28,2.91,12.47,4.03,18.78.82,4.62,2.07,9.16,3.03,13.75,1.9,9.11,4.02,18.18,6.02,27.27,1.4,6.33,2.75,12.68,4.13,19.02,0,.43.09.81.5,1.04.14.87-.33,1.86.52,2.58.08.71-.23,1.52.52,2.07,0,.34,0,.68.01,1.03.04,1.29.4,2.49,1.02,3.62,0,1.06-.09,2.14.53,3.09,1.67,9.32,3.99,18.5,5.92,27.77,1.18,5.68,2.73,11.29,3.83,16.98,2.26,11.64,5.09,23.16,7.55,34.76,1.61,7.59,3.31,15.17,4.97,22.75,0,.15-.02.3-.04.44Z"/>
      <path class="cls-15" d="m617.35,457.71c1.91-8.51,3.8-17.02,5.72-25.53,1.34-5.92,2.78-11.82,4.07-17.76,1.94-8.94,4.06-17.84,6-26.78,1.01-4.67,2.22-9.31,3.13-13.99,1.21-6.22,2.86-12.32,4.16-18.51.16-.75.12-1.54.17-2.31,0-.32-.01-.64-.02-.97.17-.02.33-.04.5-.04.83.78.93,1.64.66,2.78-2.14,9.3-4.19,18.61-6.28,27.92-4.47,19.96-8.95,39.92-13.42,59.88-6.39,28.52-12.78,57.04-19.18,85.55-6.15,27.42-12.32,54.84-18.47,82.26-2.99,13.33-5.95,26.68-8.98,40-.22.99-.01,2.35-1.45,2.76,0,0-.16-.08-.16-.08.27-1.6.46-3.22.81-4.8,2.2-9.93,4.41-19.86,6.65-29.79,2.88-12.76,5.8-25.51,8.69-38.26,2.76-12.17,5.52-24.34,8.24-36.52,1.92-8.59,3.74-17.21,5.7-25.79,1.16-5.08,2.3-10.18,3.5-15.25,2.26-9.56,4.21-19.19,6.32-28.79,1.17-5.34,2.4-10.67,3.61-16.01Z"/>
      <path class="cls-2" d="m200.98,652.38c.02-.15.03-.3.04-.44,38.98.36,77.95.04,116.93.38,63.27.56,126.55.13,189.82.19,7.47,0,14.94.08,22.41.33,14.53.47,29.09.11,43.64.09,0,0,.16.08.16.08-.5.82-1.25,1.06-2.18,1.05-9.27-.07-18.55-.11-27.82-.16-1.19-.59-2.39-.59-3.58,0-.53,0-1.06,0-1.59-.01-.75-.64-1.65-.37-2.48-.37-9.63-.03-19.26-.04-28.89-.03-6.45,0-12.89.07-19.34.11-1.81,0-3.61-.02-5.42-.02-37.95-.05-75.89-.11-113.84-.15-7.23,0-14.45.07-21.68.11-2.05.02-4.11.04-6.16.06-1.22-.06-2.44-.13-3.66-.19-.51-.54-1.01-.54-1.53,0-.87,0-1.74,0-2.61,0-.85-.59-1.69-.58-2.55-.02-.87,0-1.74,0-2.6.01-.17-.25-.34-.25-.51,0-.35,0-.7,0-1.06,0-1.02-.61-2.04-.61-3.06,0-.36,0-.72,0-1.07-.01-.84-.67-1.82-.37-2.74-.37-8.17-.03-16.33-.03-24.5-.02-4.38,0-8.76.06-13.15.1-5.16,0-10.31,0-15.47,0-21.67-.02-43.34-.04-65.01-.06-.17-.21-.34-.43-.5-.64Z"/>
      <path class="cls-8" d="m347.15,653.54c7.23-.04,14.45-.12,21.68-.11,37.95.04,75.89.09,113.84.15,1.81,0,3.61.01,5.42.02.05.13.09.26.14.38-1.2.03-2.41.08-3.61.08-45.8-.02-91.6-.04-137.4-.06-.03-.15-.05-.3-.07-.45Z"/>
      <path class="cls-15" d="m578.61,351.83c-14.12,0-28.25-.01-42.37-.02,0-.12.01-.24.02-.37v-.21c3.07-.01,6.16-.03,9.24-.04,4.65.04,9.29.1,13.94.11,19.8.03,39.6.04,59.4.06.05.12.09.25.12.38-1.11.03-2.23.08-3.34.08-12.34,0-24.68.01-37.02.01Z"/>
      <path class="cls-8" d="m201.48,653.02c21.67.02,43.34.04,65.01.06,5.16,0,10.31,0,15.47,0,.05.13.1.25.15.38-5.07.03-10.15.1-15.22.1-20.91,0-41.81-.02-62.72-.06-.9,0-1.91.35-2.68-.48Z"/>
      <path class="cls-10" d="m372.44,137.38c0,.55-.19,1.06-.64,1.35-3.05,1.94-4.68,5.18-7.07,7.72-.57.61-.89,1.46-1.28,2.22-3.71,7.37-7.4,14.74-11.11,22.11-.42.83-.67,1.79-1.54,2.33-.03-.2-.05-.41-.07-.61,3.09-6.78,6.69-13.31,9.93-20.01,1.88-3.87,3.96-7.6,6.71-10.92,1.42-1.72,2.83-3.45,5.06-4.19Z"/>
      <path class="cls-14" d="m135.37,350.82c-.02-.13-.03-.26-.03-.39.42-.07.84-.19,1.26-.19,20.06.02,40.12.04,60.18.07.04.13.07.25.09.38-.94.03-1.88.08-2.83.08-13.98,0-27.97-.02-41.95-.01-5.58,0-11.15.04-16.73.06Z"/>
      <path class="cls-14" d="m488.23,653.98c-.05-.13-.09-.26-.14-.38,6.45-.04,12.89-.1,19.34-.1,9.63-.01,19.26,0,28.89.03.83,0,1.73-.26,2.48.37-6.88.32-13.76.08-20.64.1-9.98.04-19.95,0-29.93-.02Z"/>
      <path class="cls-11" d="m222.17,350.85c-.36,0-.72,0-1.07.01-2.23,0-4.47-.02-6.7-.03-.35,0-.7,0-1.05,0-.86-.05-1.71-.11-2.57-.16,0-.12-.01-.25-.02-.37,11.23,0,22.47-.01,33.7-.01,5.15,0,10.29.01,15.44.02-.01.15-.03.3-.04.45-1.03.02-2.06.06-3.1.06-11.53.01-23.06.02-34.58.03Z"/>
      <path class="cls-14" d="m282.1,653.46c-.05-.13-.1-.25-.15-.38,4.38-.03,8.76-.09,13.15-.1,8.17-.01,16.33,0,24.5.02.92,0,1.9-.3,2.74.37-4.98.28-9.97.1-14.96.1-8.43.02-16.86,0-25.28-.02Z"/>
      <path class="cls-9" d="m618.96,351.73c-.03-.13-.07-.26-.12-.38,6.96-.02,13.93-.05,20.89-.07.52,0,1.04.03,1.35.56-.17,0-.34.02-.5.04-7.21-.05-14.41-.09-21.62-.14Z"/>
      <path class="cls-8" d="m532.15,351.45c-1.23,0-2.46,0-3.69,0-.15-.07-.31-.07-.47-.02-3.17-.04-6.34-.05-9.51-.12-.82-.02-1.74.3-2.39-.52,6.7,0,13.39.01,20.09.02.02.14.05.28.07.43,0,0,.01.21.01.21-1.37,0-2.74,0-4.11,0Z"/>
      <path class="cls-9" d="m210.76,350.3c0,.12.02.25.02.37-1.72.05-3.44.1-5.16.15l-1.57-.02c-2.4-.04-4.79-.07-7.19-.11-.02-.13-.05-.26-.09-.38,4.66,0,9.32,0,13.98-.01Z"/>
      <path class="cls-9" d="m339.91,194.23c-.65,2.53-1.66,4.88-3.47,6.82.75-2.48,1.79-4.81,3.47-6.82Z"/>
      <path class="cls-1" d="m536.25,351.23c-.02-.14-.05-.28-.07-.43,2.46,0,4.93-.03,7.4-.02.66,0,1.38-.15,1.93.41-3.09.01-6.17.03-9.25.04Z"/>
      <path class="cls-8" d="m392.61,132.76c-2.75,0-5.51,0-8.26-.01,2.75-.81,5.51-.8,8.26.01Z"/>
      <path class="cls-9" d="m346.03,181.78c-.08,1.53-.47,2.9-1.94,3.7.34-1.39.89-2.68,1.94-3.7Z"/>
      <path class="cls-9" d="m341.81,190.49c-.11,1.51-.74,2.77-1.9,3.75.19-1.47.72-2.77,1.9-3.75Z"/>
      <path class="cls-1" d="m347.15,653.54c.02.15.04.3.07.45-2.07-.16-4.2.48-6.23-.4,2.05-.02,4.11-.04,6.16-.06Z"/>
      <path class="cls-9" d="m343.44,186.94c0,1.28-.39,2.38-1.45,3.17.07-1.25.52-2.32,1.45-3.17Z"/>
      <path class="cls-14" d="m540.39,653.91c1.19-.6,2.39-.6,3.58,0-1.19.21-2.39.2-3.58,0Z"/>
      <path class="cls-14" d="m323.41,653.39c1.02-.61,2.04-.61,3.06,0-1.02.2-2.04.2-3.06,0Z"/>
      <path class="cls-3" d="m395.02,133.37c-.81-.12-1.71.16-2.41-.52.85-.06,1.75-.34,2.41.52Z"/>
      <path class="cls-9" d="m349.14,175.58c.04.73.04,1.44-.89,1.65,0-.71.29-1.27.89-1.65Z"/>
      <path class="cls-14" d="m330.65,653.38c.85-.56,1.7-.58,2.55.02-.85.17-1.7.19-2.55-.02Z"/>
      <path class="cls-9" d="m350.74,172.49c.02.2.05.41.07.61-.13.51-.32.96-.89,1.12.05-.68.32-1.26.82-1.73Z"/>
      <path class="cls-14" d="m335.81,653.4c.51-.53,1.02-.53,1.53,0-.51.15-1.02.14-1.53,0Z"/>
      <path class="cls-9" d="m326.03,221.66c.02.45-.13.79-.54,1.01-.05-.46.13-.8.54-1.01Z"/>
      <path class="cls-9" d="m332.77,208.27c0,.43-.12.79-.51,1.02-.09-.47.05-.82.51-1.02Z"/>
      <path class="cls-9" d="m330.7,212.4c-.09.18-.19.37-.28.55-.14-.3,0-.46.28-.55Z"/>
      <path class="cls-9" d="m331.73,210.34c-.09.18-.18.37-.27.55-.13-.29,0-.46.27-.55Z"/>
      <path class="cls-9" d="m324.46,224.75c.02.27-.09.48-.34.6-.08-.31.06-.49.34-.6Z"/>
      <path class="cls-9" d="m324.97,223.7c.02.27-.07.48-.31.61-.08-.3.05-.49.31-.61Z"/>
      <path class="cls-9" d="m325.48,222.68c.02.27-.08.48-.33.6-.07-.3.06-.49.33-.6Z"/>
      <path class="cls-9" d="m326.53,220.62c-.1.2-.2.4-.29.6-.12-.31.01-.49.29-.6Z"/>
      <path class="cls-9" d="m327.57,218.56c.02.26-.08.46-.3.59-.11-.31.02-.49.3-.59Z"/>
      <path class="cls-9" d="m328.1,217.54c-.1.2-.2.39-.3.59-.12-.31.02-.49.3-.59Z"/>
      <path class="cls-9" d="m329.12,215.46c-.09.2-.19.39-.28.59-.14-.31,0-.49.28-.59Z"/>
      <path class="cls-9" d="m329.66,214.46c-.1.19-.19.38-.29.56-.12-.3.02-.47.29-.56Z"/>
      <path class="cls-9" d="m349.77,174.64c.02.31-.14.48-.41.57-.01-.3.14-.48.41-.57Z"/>
      <path class="cls-9" d="m348.19,177.71c.05.29-.07.49-.33.63-.06-.3.08-.49.33-.63Z"/>
      <path class="cls-9" d="m330.18,213.43c-.09.19-.18.37-.27.56-.13-.3,0-.46.27-.56Z"/>
      <path class="cls-9" d="m331.21,211.36c-.09.19-.18.37-.26.56-.14-.3-.02-.46.26-.56Z"/>
      <path class="cls-9" d="m332.11,209.68c.03.3-.1.5-.36.63-.04-.3.1-.5.36-.63Z"/>
      <path class="cls-9" d="m333.29,207.26c-.08.18-.17.35-.25.53-.15-.29-.03-.45.25-.53Z"/>
      <path class="cls-9" d="m333.68,206.59c.02.29-.11.5-.37.62-.04-.3.1-.5.37-.62Z"/>
      <path class="cls-9" d="m334.33,205.19c-.08.18-.16.35-.23.53-.16-.28-.04-.44.23-.53Z"/>
      <path class="cls-9" d="m334.81,204.11c.06.25-.03.44-.23.58-.15-.28-.02-.45.23-.58Z"/>
      <path class="cls-9" d="m335.32,203.07c.04.31-.12.48-.38.58-.02-.29.13-.46.38-.58Z"/>
      <path class="cls-14" d="m327.53,653.38c.17-.24.34-.24.51,0-.17,0-.34,0-.51,0Z"/>
      <path class="cls-9" d="m335.89,202.12c-.02.27-.17.43-.43.49,0-.29.15-.45.43-.49Z"/>
      <path class="cls-9" d="m336.41,201.1c-.09.16-.17.33-.26.49-.16-.29-.04-.44.26-.49Z"/>
      <path class="cls-9" d="m347.19,179.8c.02.3-.14.48-.41.57-.01-.3.14-.48.41-.57Z"/>
      <path class="cls-9" d="m347.69,178.75c.03.29-.1.49-.35.61-.06-.31.07-.5.35-.61Z"/>
      <path class="cls-4" d="m176.67,539.86c-.85-.72-.38-1.71-.52-2.58.8-.81.17-.94-.5-1.04-1.38-6.34-2.73-12.68-4.13-19.02-2-9.09-4.12-18.16-6.02-27.27-.96-4.6-2.21-9.13-3.03-13.75-1.12-6.31-2.77-12.5-4.03-18.78-.91-4.51-1.98-9.01-2.95-13.51-2.07-9.6-4.43-19.13-6.25-28.79-.62-3.27-1.58-6.47-2.3-9.72-1.82-8.26-3.59-16.52-5.38-24.78-1.43-6.59-2.88-13.19-4.3-19.78-.65-3-1.27-6.01-1.9-9.01,22.56,0,45.12,0,67.68,0-.07.74-.51,1.02-1.21,1.03-1.85.01-3.54.67-5.12,1.52-.81.43-1.21.37-1.66-.35-.24-.37-.67-.67-1.09-.4-1.25.8-1.67,2.29-2.64,3.35-.52.57.02,1.48.42,2.16.55.96,1.09,1.05,1.63.06.68-1.26,1.43-1.27,2.5-.65.44.26.95.51,1.44.54,2.34.1,3.3,2.09,4.73,3.41.71.66.54,1.57.38,2.43-.35,1.91-.24,2.28,1.46,2.9,1.43.52,2.42,1.15,2.36,2.88-.03.88.81,1.48,1.25,2.21.33.54.8,1.26,1.64.82.73-.38.77-1.16.61-1.83-.4-1.68-.91-3.31.36-4.89.35-.44.09-.99-.52-1.2-.81-.28-1.6-.59-2.49-.57-.85.02-1.72.17-2.54-.17-.45-.87.54-.92.77-1.4.36-.75.59-1.46-.33-1.97-1.19-.65-1.1-1.22.12-1.64.56-.19.91-.82,1.62-.77,1.07.74-.08,1.73.25,2.56.43.39.97.35,1.47.3,1.07-.1,1.83.24,2.24,1.28.54,1.38,1.47,1.51,2.68.82.7-.41,1.5-.75,1.92.31.36.93-.17,1.53-1.06,1.66-.93.13-1.4.53-1.36,1.49.03.7-.38,1.12-.97,1.38-1.23.54-1.24,1.52-.93,2.59.21.74.59,1.44.73,2.2.3,1.59-.69,2.41-2.16,1.67-.93-.47-1.21-.05-1.62.55-.78,1.12-1.58,1.11-2.48.08-.5-.58-1-1.21-1.75-1.49-.21-.08-.51-.02-.73.08-.27.12-.25.42-.18.67.04.16.12.33.2.47,1.28,2.14,1.61,4.3.3,6.58-.27.46-.27,1.04.4,1.24.58.17,1.02-.15,1.24-.66.17-.38.16-.84.29-1.24.18-.6.65-1.36,1.13-1.28,1.27.22,2.2.58,3.13-.98.53-.9,2.24-1.11,3.42-1.61.15-.06.33-.06.5-.09.72.39.1.88.1,1.32.02,1.31.38,1.54,1.74,1.03.39-.15.75-.56,1.09-.03.26.41.09.85-.24,1.16-1.57,1.48-1.59,3.33-1.53,5.38,1.29-.18,1.88-1.7,3.15-1.05.24.62-.26.73-.58.98-1.11.85-1.6,3.75-.84,4.85.33.47.81.66,1.35.52.74-.19,1.46-.44,2.16-.65.35-.77-.41-1.1-.56-1.64-.14-.51-.24-1.04.2-1.44.43-.38,1.07-.42,1.43-.08,1.42,1.3,2.45.63,3.48-.52.27-.3.7-.61,1.07-.64,1.1-.09,1.49-.65,1.45-1.68-.01-.32.08-.73.54-.74.51,0,.76.36.88.78.31,1.09-.35,2.44-1.65,3.17-.91.51-1.8,1.01-2.45,1.84-.27.35-.5.72-.31,1.18.21.5.64.48,1.08.4.33-.06.91-.23.96-.13,1.08,1.97,3.44.78,4.8,1.98.25.22.63.53.61.77-.08,1.29-.9,2.46-.63,3.85.05.27-.69.38-1.13.27-.41-.11-.53-.41-.44-.78.19-.73.67-1.67-.27-2.02-1.25-.47-1.44.91-1.99,1.58-1.03,1.27-.08,2.76-.33,4.14-.07.42.65.75,1.2.76.77.02,1.63.22,2.3-.04,1.17-.45,2.11,0,3.62.76-1.71-3.02,1.43-3.94,1.67-6,.04-.34.57-.35.9-.24.42.14.91.51.79.9-.4,1.24.43,2.64-.75,3.82-.87.86-.53,1.78.57,1.77,2.31-.04,4.85.43,6.42-2.06.21-.34.62-.6.99-.79.29-.15.71-.15.92.2.12.2.2.62.1.7-1.21.92-.23,2.06-.36,3.08-12.96,0-25.93,0-38.89,0-.77,0-1.55-.03-2.31.09-.6.1-.52.54-.18.94.02.35.04.7.06,1.05,0,2.43.92,4.69,1.27,7.06.49,3.31,1.6,6.5,1.87,9.85-.05.44-.02.85.38,1.13.95,4.6,2.06,9.17,2.73,13.82-.06.62-.21,1.26.44,1.7.03.29.06.58.09.87-.07.63-.22,1.27.44,1.72.57,2.43,1.14,4.87,1.71,7.3-.14.52-.17,1.02.35,1.38.04.18.07.35.11.53-.08.94-.17,1.91.14,2.8,1.45,4.21,1.82,8.67,2.92,12.95.91,3.55,1.08,7.26,2.46,10.7-.61.53-.61,1.04.08,1.5h0c.04.73-.27,1.55.51,2.09.03.14.04.29.02.43.02.75-.29,1.59.5,2.16.03.14.04.27.02.41.03.75-.32,1.58.5,2.14h0c.08.88-.39,1.87.49,2.59h0c.06.72-.25,1.53.51,2.08.02.16.02.32.02.47.05.73-.28,1.55.5,2.1h0c.12.87-.37,1.87.52,2.58h0c.11.88-.38,1.87.51,2.58h0c-.12,3.65,1.06,7.09,1.76,10.6,1.09,5.52,2.53,10.98,2.88,16.62.04.71.32,1.13,1.04,1.21.42,3.11,1.32,6.15,1.55,9.29-.97,1.03-.68,2.35-.42,3.42.53,2.12-.31,4.37.84,6.45.4.72.1,1.84-.25,2.76-.32.85-.2,1.96-1.63,1.83-1.19-.11-1.89-.72-2.14-1.86-.11-.5-.03-1.08-.26-1.5-.35-.67-.89-1.49-1.8-.98-1.36.75-2.87.46-4.24.83-1.86.5-3.04.12-4.25-1.34-.51-.62-1.48-1.68-2.4-1.18-2.12,1.14-4.63.32-6.68,1.55-.6.36-.85-.09-1.27-.42-1.47-1.14-4.07-.84-5.39.54-.23.24-.37.61-.86.4-.56-.73-.15-1.63-.32-2.44-.13-.64-.44-1.36-1.15-.9-1.21.78-3.18.51-3.56,2.49-.13.64-.69.7-1.23.63-1.66-.22-1.18-2.68-2.99-2.87-.35-.04.04-.75.09-1.15.05-.42.07-.86.04-1.28-.03-.36-.23-.66-.62-.7-.37-.04-.72.12-.76.51-.13,1.25-.92,1.79-2.05,1.92-.97.11-1.77,1.5-2.95.29-.41-.42-1.13.14-1.12.63.03,1.51-1.2,2.38-1.62,3.59-.45,1.31-1.26,1.17-2.18,1.2-.62-.95-.52-2.03-.53-3.09.9-.94,3.14-.85,2.34-3.12-.12-.33.42-.44.75-.5.53-.1,1.05-.25.9-.94-.15-.65-.74-.58-1.24-.6-.63-.02-1.2.17-1.53.73-.53.93-1.41.79-2.24.8,0-.34,0-.68-.01-1.03.79-1.33.75-1.47-.52-2.07Zm35.57,3.88c-.02-.68-.4-1.11-1.05-1.24-1.18-.24-1.89-1.03-2.58-1.93-.46-.6-1.09-1.08-1.61-1.64-.7-.76-1.5-.55-2,.06-.66.81.03,1.64.71,1.76,1.23.21,1.41.97,1.61,1.92.1.49.42.92.64,1.39.33.69.78,1.06,1.62.79.64-.21,1.32-.27,1.99-.4.38-.07.57-.32.65-.7Zm-26.11-187.37c.49.04,3.12-1.36,3.29-1.73.23-.52.13-.99-.28-1.38-.41-.39-.92-.5-1.39-.19-.85.56-1.61,1.25-2.1,2.16-.27.51-.13.99.48,1.14Zm34.26,183.98c.01-.5-.33-.77-.74-.89-.8-.23-2.28.56-2.53,1.33-.11.33-.08.69.25.91.56.38,2.89-.66,3.03-1.36Zm6.36-145.81c-.01-.22-.06-.65-.6-.74-.53-.09-.79.24-.84.7-.06.54.04,1.08.72,1.1.49.02.72-.36.72-1.06Zm-40.87,144.7c.07-.53-.21-.82-.69-.87-.39-.04-.96-.13-.98.48-.02.49.51.61.89.77.38.16.64.01.78-.38Zm28.15-139.78c-.41.06-.55.36-.54.72.01.4.31.63.66.61.49-.03.76-.34.64-.85-.09-.39-.38-.51-.76-.47Zm-1.31-16.23c.25-.07.5-.18.46-.49-.07-.46-.32-.77-.82-.74-.28.02-.44.23-.43.51.02.5.27.76.8.71Zm-13.48,159.38c0-.28-.13-.49-.39-.56-.5-.13-.83.12-.88.6-.04.37.19.66.59.61.34-.04.56-.33.68-.66Zm-12.51-178.48c.38-.02.57-.16.57-.43,0-.27-.2-.43-.47-.42-.34,0-.67.13-.56.54.04.16.35.24.46.31Zm40.01,177.47c-.09-.12-.18-.37-.36-.45-.28-.13-.44.12-.49.37-.06.33-.02.68.43.67.27,0,.38-.24.41-.59Zm-33.23-178.32c.07-.32-.14-.48-.38-.49-.21-.01-.5.06-.62.21-.16.19-.03.46.21.56.33.13.62.05.79-.28Zm-1.59,7.21c-.35.08-.56.2-.5.5.05.26.28.39.52.38.36-.02.64-.22.49-.6-.06-.15-.38-.21-.51-.28Zm30.05,25.1c-.14-.06-.32-.21-.42-.17-.1.04-.13.26-.2.41.14.06.32.21.42.17.1-.04.14-.26.2-.41Zm-21.64-25.49c-.06.14-.21.32-.17.42.04.1.26.13.41.2.06-.14.21-.32.17-.42-.04-.1-.26-.14-.41-.2Z"/>
      <path class="cls-13" d="m203.5,405.53c-.35-.39-.42-.83.18-.94.75-.13,1.54-.09,2.31-.09,12.96,0,25.93,0,38.89,0,57.86,0,115.72,0,173.58,0,1.21,0,2.41,0,3.62,0,1.89,0,3.79,0,5.68,0,2.24,0,4.48,0,6.72,0,.34,0,.69,0,1.03,0,3.96,0,7.92,0,11.88,0,.69,0,1.38,0,2.06,0,20.94,0,41.88-.15,62.82.05,20.91.2,41.81.63,62.72.46,0,.18,0,.36,0,.53-.47.82-1.04,1.51-2.08,1.55-.33-.2-.67-.39-1-.59-1.89-.85-3.86-.34-5.81-.33-9.25-.19-18.51-.22-27.76-.09-21.98-.02-43.96-.05-65.93-.06-2.49,0-4.97.08-7.46.12-.94-.02-1.88-.05-2.81-.06-7.85-.05-15.69-.09-23.54-.13-.83-.69-1.82-.39-2.73-.39-20.73-.03-41.46-.04-62.19-.04-5.76,0-11.52.06-17.28.1-1.37,0-2.75-.03-4.12-.03-7.56,0-15.11.01-22.67.02-.17-.02-.34-.05-.51-.05-28.17-.04-56.35-.08-84.52-.1-.65,0-1.4-.23-1.86.52-.31-.17-.62-.34-.93-.52-.35-.45-.7-.43-1.04.01-.34,0-.69,0-1.03,0-.51-.56-1.03-.56-1.55,0-.52,0-1.03,0-1.55,0-1.03-.66-2.06-.66-3.1-.02h-1.56c-.48-.49-1.1-.41-1.7-.41-5.94,0-11.88,0-17.81,0-.6,0-1.22-.07-1.67.46,0,0-.1,0-.1,0-.83.02-1.66.03-2.49.05-1.56,0-3.11,0-4.67,0Z"/>
      <path class="cls-11" d="m431.89,307.44c.47.6.39,1.33.48,2.01-.07.97.21,1.85.64,2.72,3.9,7.94,7.78,15.89,11.68,23.82.37.74.53,1.68,1.53,1.95.04.15.09.29.13.44.13.19.26.38.39.57.04.16.08.32.12.48.13.19.25.37.38.56.04.16.08.32.13.48.04,1.1.25,2.12,1.37,2.66.06.15.12.31.18.46l.33.53c.06.18.12.36.18.54.11.16.21.33.32.49.12.45.24.91.36,1.36.21,1.48.6,2.86,2,3.69,0,0,.01,0,.01,0-.02.18-.05.37-.07.55-.07.15-.15.3-.22.44-1.55.03-3.09.08-4.64.08-7.48,0-14.97,0-22.45-.02-.07-.13-.12-.26-.17-.4,7.57-.29,15.14-.01,22.72-.09.93,0,1.87.2,2.79-.18.2-.88-.39-1.49-.72-2.16-10.53-21.26-21.07-42.52-31.63-63.76-8.7-17.49-17.44-34.96-26.15-52.44-.38-.76-.95-1.46-.91-2.38,1.8,1.03,2.52,2.91,3.46,4.57,1.52,2.67,2.9,5.41,4.34,8.12.32.6.56,1.28,1.42,1.28.31.19.61.38.92.57,0,0,.03.03.03.03-.05.44.02.82.49.99,0,0,.02.04.02.04-.12.63.14,1.17.41,1.72,2.48,4.99,4.78,10.07,7.14,15.11,2.54,5.43,5.28,10.77,8.09,16.08,1.87,3.54,3.83,7.07,5.21,10.85.02.25-.05.55.06.76,2.5,5.07,5.02,10.14,7.55,15.21.2.4.48.74,1,.41.15-.01.25-.09.32-.22.02.31.03.62.05.92-.36.45-.32.82.21,1.09.18.01.36.03.54.04Z"/>
      <path class="cls-12" d="m321.33,351.29c-.9-.68-.33-1.38,0-2.05,1.25-2.55,2.51-5.09,3.8-7.62,4.24-8.33,8.47-16.68,12.76-24.98,7.74-14.97,15.12-30.12,22.85-45.09,7.69-14.9,15.04-29.96,22.66-44.89,1.24-2.44,2.7-4.76,4.06-7.14.04.57.09,1.13.14,1.7-.78,2.52-2.55,4.58-3.25,7.13-.65.61-.91,1.45-1.3,2.21-9.76,19.33-19.53,38.67-29.27,58.01-9.27,18.43-18.52,36.88-27.75,55.33-.96,1.92-2.07,3.77-2.72,5.83-1,.09-1.54.76-1.98,1.56h0Z"/>
      <path class="cls-12" d="m424.72,351.26c7.48,0,14.97.02,22.45.02,1.55,0,3.09-.05,4.64-.08.59.03,1.18.07,1.77.1.22.41.61.5,1.03.51,0,.18,0,.36,0,.54h-134.04c.37-.52.56-.78.75-1.05,0,0,0,0,0,0,.94.07,1.84-.05,2.66-.56.49.05.97.1,1.46.14.91.73,1.99.41,2.99.41,24.44.02,48.88.03,73.32.02,7.66,0,15.32-.03,22.97-.04Z"/>
      <path class="cls-13" d="m454.61,351.81c-.42,0-.8-.1-1.03-.51,0-.63-.3-1-.95-1.06-.18-.01-.35-.02-.53-.04,0,0-.01,0-.01,0-.47-1.34-.3-3.02-2-3.69-.12-.45-.24-.91-.36-1.36.09-.29-.05-.44-.32-.49-.06-.18-.12-.36-.18-.54.09-.3-.06-.45-.33-.53-.06-.16-.12-.31-.18-.46.1-1.18-.35-2.07-1.37-2.66-.04-.16-.09-.32-.13-.48.06-.31-.11-.47-.38-.56-.04-.16-.09-.32-.12-.48.05-.31-.11-.48-.39-.57-.04-.15-.09-.29-.13-.44.11-.44-.02-.84-.21-1.24-1.12-2.4-2.21-4.83-3.36-7.22-2.52-5.25-5.07-10.47-7.59-15.72-.35-.74-1-1.49-.23-2.35.51.23.74.71.94,1.17,1.93,4.48,4.46,8.65,6.67,12.99,4.27,8.38,8.38,16.85,12.7,25.2-.18.34-.35.69-.53,1.03Z"/>
      <path class="cls-6" d="m203.03,351.81c-22.56,0-45.12,0-67.68,0,0-.33.01-.66.02-.99,5.58-.02,11.15-.06,16.73-.06,13.98,0,27.97.01,41.95.01.94,0,1.88-.05,2.83-.08,2.4.04,4.79.07,7.19.11,0,.33,0,.67,0,1h-1.03Z"/>
      <path class="cls-15" d="m422.17,289.23c-1.39-3.79-3.34-7.31-5.21-10.85-2.81-5.31-5.54-10.65-8.09-16.08-2.36-5.05-4.67-10.12-7.14-15.11-.27-.55-.53-1.08-.41-1.72,1.73,1.82,2.63,4.14,3.74,6.31,3.6,7.02,7.07,14.1,10.63,21.14,3.05,6.03,6.18,12.02,9.24,18.04.38.75,1.31,1.57.19,2.49-.8-.69-1.01-1.73-1.52-2.59-.38-.63-.54-1.46-1.44-1.63Z"/>
      <path class="cls-10" d="m434.82,311.42c-.77.86-.13,1.62.23,2.35,2.52,5.25,5.08,10.47,7.59,15.72,1.15,2.39,2.23,4.81,3.36,7.22.19.4.32.79.21,1.24-.99-.27-1.16-1.2-1.53-1.94-3.9-7.94-7.78-15.88-11.68-23.82-.43-.87-.71-1.74-.64-2.72.35.33.7.66,1.05.99.37.04.73.08,1.1.11.29.22.39.5.31.86Z"/>
      <path class="cls-10" d="m384.35,228.34c.7-2.55,2.48-4.61,3.25-7.13.46-.04.92-.07,1.37-.11,0,0,.04.03.04.03.07.26.22.44.49.5.36.25.45.64.5,1.04,0,.42.05.81.5,1.01,0,0,.03.06.03.06-.03.42.05.79.49.98,0,0,.03.05.03.05-.03.42.06.79.49.98,0,0,.03.04.03.04-.01.56-.1,1.14.52,1.49,0,0,.03.05.03.05-.01.34-.03.69-.04,1.03-.5-.02-.99-.03-1.49-.05-.27.07-.48.2-.53.5v-.02c-.25-.3-.39-.63-.35-1.03.29-.41.25-.8-.26-.91-.69-.14-1.44-.3-1.99.39-.16.19-.32.39-.48.58-.91-.01-1.69.67-2.63.5Z"/>
      <path class="cls-6" d="m222.17,350.85c11.53-.01,23.06-.02,34.58-.03,1.03,0,2.06-.04,3.1-.06-.57.75-1.39.53-2.13.53-11.21.01-22.41.01-33.62,0-.67,0-1.39.16-1.92-.44Z"/>
      <path class="cls-10" d="m422.17,289.23c.9.17,1.06,1,1.44,1.63.51.86.72,1.9,1.52,2.59,1.45,2.98,2.76,6.03,4.6,8.8.04,1,.29,1.9,1.07,2.6,0,.25-.01.51-.02.76-.52.33-.8,0-1-.41-2.53-5.06-5.05-10.13-7.55-15.21-.1-.21-.04-.5-.06-.76Z"/>
      <path class="cls-6" d="m205.62,350.82c1.72-.05,3.44-.1,5.16-.15.86.05,1.71.1,2.57.16-.12.89-.74.98-1.46.98-1.92,0-3.84,0-5.76,0-.17-.33-.33-.66-.5-.99Z"/>
      <path class="cls-6" d="m214.4,350.83c2.23,0,4.47.02,6.7.03-.09.42-.22.92-.78.74-1.51-.48-2.97-.38-4.46.12-.71.23-1.36.04-1.47-.89Z"/>
      <path class="cls-15" d="m392.07,228.37c.01-.34.03-.69.04-1.03,1.37,1.01,1.92,2.44,2.1,4.07,0,0-.14.12-.14.12-1.19-.72-1.15-2.22-2-3.15Z"/>
      <path class="cls-15" d="m388.97,221.11c-.46.04-.92.07-1.37.11-.04-.56-.09-1.13-.13-1.7.13-.48.25-1.15.91-.51.55.54.71,1.31.6,2.1Z"/>
      <path class="cls-6" d="m430.81,304.84c-.78-.69-1.03-1.6-1.07-2.6,1.59.65,1.8,1.18,1.07,2.6Z"/>
      <path class="cls-4" d="m205.62,350.82c.17.33.33.66.5.99-.69.26-1.38.95-2.07,0,0-.33,0-.67,0-1,.52,0,1.05.01,1.57.02Z"/>
      <path class="cls-7" d="m454.61,351.81c.18-.34.35-.69.53-1.03.21.26.45.51.62.8.22.37.46.82-.04,1.12-.41.25-.82.06-1.1-.35,0-.18,0-.36,0-.54Z"/>
      <path class="cls-4" d="m437.36,386.54c-.1.4-.32.73-.83.68-.27-.03-.43-.24-.41-.52.03-.5.28-.76.8-.69.26.04.46.18.44.52Z"/>
      <path class="cls-15" d="m397.8,238.14c.81.89,1.32,1.93,1.55,3.11-.07.05-.14.11-.21.16-.85-.87-1.28-1.95-1.55-3.11.07-.05.14-.1.21-.16Z"/>
      <path class="cls-6" d="m431.89,307.44c-.18-.01-.36-.03-.54-.04-.07-.36-.14-.73-.21-1.09-.01-.31-.03-.62-.05-.92q1.46.33.79,2.06Z"/>
      <path class="cls-15" d="m400.78,244.41c-.31-.19-.61-.38-.92-.57-.07-.46-.15-.93-.22-1.39.08-.05.15-.11.22-.17.64.57,1.02,1.24.92,2.13Z"/>
      <path class="cls-13" d="m434.52,310.56c-.37-.04-.73-.08-1.1-.11.05-.32.1-.73.47-.76.57-.04.51.51.63.87Z"/>
      <path class="cls-15" d="m395.22,232.98c.57.37.5.97.55,1.53,0,0-.12.1-.12.1-.48-.38-.49-.95-.64-1.47.07-.05.14-.11.21-.16Z"/>
      <path class="cls-15" d="m392.09,227.28c-.61-.34-.53-.93-.52-1.49.65.33.52.93.52,1.49Z"/>
      <path class="cls-15" d="m391.54,225.76c-.43-.19-.52-.56-.49-.98.45.18.52.56.49.98Z"/>
      <path class="cls-15" d="m401.3,245.43c-.48-.17-.55-.55-.49-.99.51.16.58.54.49.99Z"/>
      <path class="cls-15" d="m391.02,224.72c-.43-.19-.52-.56-.49-.98.45.18.52.55.49.98Z"/>
      <path class="cls-15" d="m390.5,223.69c-.45-.2-.51-.59-.5-1.01.45.2.54.57.5,1.01Z"/>
      <path class="cls-15" d="m399.35,241.25c.4.23.5.61.52,1.03-.07.06-.15.11-.22.17-.17-.35-.34-.69-.5-1.03.07-.05.14-.11.21-.16Z"/>
      <path class="cls-15" d="m397.28,237.11c.4.23.5.61.52,1.03-.07.05-.14.11-.21.16-.17-.35-.34-.69-.51-1.04l.2-.16Z"/>
      <path class="cls-15" d="m396.77,236.08c.4.23.49.61.52,1.03,0,0-.2.16-.2.15-.17-.35-.34-.69-.51-1.03l.2-.16Z"/>
      <path class="cls-15" d="m396.24,235.05c.4.23.5.61.52,1.03,0,0-.2.16-.2.15-.18-.34-.35-.68-.53-1.01.07-.06.14-.11.21-.17Z"/>
      <path class="cls-15" d="m394.69,231.95c.4.23.5.61.52,1.03-.07.05-.14.11-.21.16-.17-.34-.35-.68-.52-1.02.07-.06.14-.11.21-.17Z"/>
      <path class="cls-15" d="m389.5,221.64c-.27-.06-.42-.24-.49-.5.16.17.32.33.49.5Z"/>
      <path class="cls-15" d="m395.76,234.51c.16.18.32.36.48.54-.07.06-.14.12-.21.17-.13-.2-.26-.41-.4-.61l.12-.1Z"/>
      <path class="cls-15" d="m394.22,231.41c.16.18.32.36.48.54-.07.06-.14.12-.21.17-.14-.2-.27-.4-.41-.59,0,0,.14-.12.14-.12Z"/>
      <path class="cls-6" d="m178.75,549.67c.92-.03,1.73.11,2.18-1.2.42-1.2,1.65-2.08,1.62-3.59,0-.49.71-1.05,1.12-.63,1.19,1.21,1.99-.18,2.95-.29,1.13-.13,1.92-.67,2.05-1.92.04-.39.39-.55.76-.51.4.04.6.34.62.7.03.42.01.86-.04,1.28-.05.4-.44,1.12-.09,1.15,1.81.19,1.33,2.64,2.99,2.87.54.07,1.1,0,1.23-.63.39-1.98,2.35-1.71,3.56-2.49.71-.46,1.02.26,1.15.9.17.81-.24,1.71.32,2.44.49.21.63-.17.86-.4,1.32-1.38,3.92-1.68,5.39-.54.42.33.66.78,1.27.42,2.05-1.23,4.56-.4,6.68-1.55.92-.49,1.89.57,2.4,1.18,1.2,1.46,2.39,1.84,4.25,1.34,1.36-.37,2.87-.07,4.24-.83.91-.5,1.44.31,1.8.98.23.43.15,1,.26,1.5.25,1.14.95,1.75,2.14,1.86,1.43.13,1.31-.98,1.63-1.83.35-.93.65-2.04.25-2.76-1.15-2.08-.32-4.33-.84-6.45-.27-1.07-.56-2.39.42-3.42.67,2,1.87,3.77,2.39,5.84.31,1.26.19,2.53.52,3.81.89,3.47,1.52,7,2.27,10.5.18.85.27,1.76,1.42,2.66-.46-2.76-.83-5.09-1.23-7.42-.52-3.03-.91-6.07-1.69-9.06-.21-.79-.47-1.99.99-2.21,0,.34,0,.68,0,1.02-.02.59-.14,1.2.51,1.57,0,.34,0,.68,0,1.02-.02,1.64.26,3.21,1.03,4.67,0,.51,0,1.02,0,1.53-.02.59-.14,1.2.51,1.57,0,.34,0,.68,0,1.02.45,2.51.91,5.03,1.36,7.54.33,1.82.23,3.73,1.22,5.4,0,.34,0,.68,0,1.02-.08,1.49.19,2.89,1.02,4.15,0,.69.02,1.37.03,2.06-.81.46-1.59,1.08-.62,1.93.73.65.91,1.03.31,1.85-.55.75-.01,1.5.47,2.08.44.54,1.07,1.05.73,1.76-.63,1.33.02,2.46.31,3.68.65,2.69,1.61,5.29,1.95,8.08.11.93.13,2.06.93,2.83,0,.34,0,.68.01,1.02-.56.43-1.18,1.23-.76,1.64.66.66,1.32-.09,1.79-.69.77.03,1.55.07,2.32.08,36.39.3,72.78-.31,109.17.41,21.59.43,43.2.09,64.8.1,35.03,0,70.05.01,105.08.02,1.11,0,2.25.15,3.25-.54.64.15.95,1.07,1.85.73.24-.87.52-1.76.73-2.67,2.25-9.83,4.5-19.67,6.72-29.51,1.09-4.83,2.13-9.68,3.2-14.52.81-3.67,1.46-7.39,2.53-10.98.78-2.63,1.31-5.32,1.94-7.97,2.34-9.72,4.47-19.49,6.6-29.26,1.26-5.76,2.72-11.48,3.95-17.25.53-2.47.68-5.08,1.93-7.37.34,0,.7-.05,1.03.03,1.13.29,1.26.62.46,1.49-.47.52-1.16.87-.53,1.67.37.47.78.97,1.5.71.68-.25,1.19-.66,1.16-1.5-.08-2.21.88-3.63,3.14-3.97.94-.14.96-.8,1-1.52.04-.85-.2-1.74.3-2.52.55-.86,1.06-1.8,2.36-1.64.62.08,1.38-.03,1.5-.71.3-1.7,1.83-1.78,2.92-2.47.83-.53,1.33-.15,1.64.55.48,1.07,1.19,2.11.74,3.4-.18.5-.21,1.01,0,1.51.14.33.39.59.75.61.43.02.62-.34.59-.68-.19-1.82,1.88-2.57,2.01-4.25.02-.19.53-.4.84-.49,1.35-.37,2.22-.96,1.44-2.55-.14-.29-.05-.84.32-.86,1.39-.08,2.81-1.1,4.15-.23,1.28.83,2.05.53,2.72-.66.45-.8,1.18-.92,1.99-.88,1.12,3.16,2.8,3.66,5,1.38-.67-.41-1.63.49-2.09-.38-.68-1.28-1.84-.96-2.91-1,.03-.51-.07-1.07.1-1.53.41-1.04,1.03-1.76,2.35-1.17,1.03.46,2.08.65,3.15-.07.8-.54,1.51.05,2.1.48,2.92,2.13,2.66,1.13,4.96-.6.71-.54,1.14-1.43,1.66-2.1-.36-1.11-1.56.26-1.88-.87-.46-1.57.24-2.52,1.87-2.35.57.06,1.04.39,1.72.15,1.98-.7,2.05-.62,2.57,1.22.11.41.07.88.59,1.01.52.14.74-.2.95-.61.65-1.25,1.49-1.43,2.68-.59.89.63,2,.22,3.01.31-1.21,5.34-2.44,10.67-3.61,16.01-2.11,9.6-4.05,19.23-6.32,28.79-1.2,5.08-2.34,10.17-3.5,15.25-1.96,8.58-3.78,17.2-5.7,25.79-2.73,12.18-5.49,24.35-8.24,36.52-2.89,12.76-5.81,25.51-8.69,38.26-2.24,9.92-4.46,19.85-6.65,29.79-.35,1.58-.54,3.2-.81,4.8-14.55.02-29.11.38-43.64-.09-7.48-.24-14.94-.32-22.41-.33-63.27-.06-126.55.37-189.82-.19-38.98-.35-77.96-.02-116.93-.38-1.66-7.58-3.36-15.16-4.97-22.75-2.46-11.6-5.28-23.12-7.55-34.76-1.11-5.69-2.65-11.3-3.83-16.98-1.92-9.27-4.25-18.45-5.92-27.77Zm58.3,12.19c-.03-.36-.15-.56-.42-.57-.28-.01-.43.18-.43.45,0,.33.09.68.52.58.16-.04.25-.34.33-.46Zm.92,5c-.06-.14-.08-.36-.18-.41-.1-.04-.28.09-.42.15.06.14.08.36.18.41.1.04.28-.09.42-.15Zm-.52-2.58c-.06-.14-.08-.36-.18-.41-.1-.04-.28.09-.42.15.06.14.08.36.18.41.1.04.28-.09.42-.15Z"/>
      <path class="cls-15" d="m559.47,479.41c-1.25,2.29-1.4,4.91-1.93,7.37-1.23,5.77-2.7,11.49-3.95,17.25-2.13,9.77-4.26,19.54-6.6,29.26-.64,2.65-1.16,5.34-1.94,7.97-1.07,3.59-1.72,7.31-2.53,10.98-1.07,4.84-2.11,9.68-3.2,14.52-2.22,9.84-4.47,19.67-6.72,29.51-.21.91-.49,1.8-.73,2.67-.9.34-1.22-.58-1.85-.73,1.43-2.01,1.6-4.4,2.06-6.71.87-3.65,1.78-7.3,2.6-10.97,2.09-9.26,4.12-18.53,6.2-27.79,1.67-7.43,3.41-14.84,5.07-22.26,2.79-12.43,5.53-24.87,8.31-37.31,1.7-7.6,3.45-15.18,5.15-22.77,2.72-12.18,5.39-24.38,8.12-36.56,1.74-7.76,3.58-15.5,5.25-23.28.23-1.08.95-2.29.13-3.47,1.05-.05,1.62-.73,2.08-1.55,0,0,.25,0,.25,0h.25c-.36,3.84-1.49,7.52-2.29,11.27-1.97,9.17-3.97,18.33-5.99,27.49-1.18,5.33-2.45,10.64-3.66,15.96-1.02,4.49-2.02,8.98-3.03,13.47-.17.52-.34,1.03-.51,1.55.19,1.42-.72,2.71-.53,4.13Z"/>
      <path class="cls-6" d="m618.96,351.73c7.21.05,14.41.09,21.62.14,0,.32.01.64.02.97-19.74,0-39.48.01-59.21-.03-.96,0-2.34.71-2.78-.98,12.34,0,24.68,0,37.02-.01,1.11,0,2.23-.05,3.34-.08Z"/>
      <path class="cls-5" d="m529.92,353.01h11.56c-1.03,1.39-1.18,2.51.11,3.47.33.25.46.81.08,1.14-.56.48-.9-.1-1.27-.41-.64-.54-.41-1.46-.96-2.25-1.38,1.15-2.7,1.13-4.17.1-.66-.46-1.52-.13-1.59.98-.03.42-.08.87-.24,1.25-.3.67-.97.66-1.37,0-.13-.22-.34-.47-.32-.69.17-1.57-.89-2.41-1.81-3.59Z"/>
      <path class="cls-5" d="m424,400.73c.01-1.66-.74-2-1.61-2.3-.88-.3-1.52-.92-1.27-1.94.27-1.07,1.26-.91,1.9-.67,1.09.39,1.53.05,1.87-.93.18-.5.71-.81,1.26-.57.8.35.48.98.22,1.52-.68,1.43-1.39,2.85-2.39,4.89Z"/>
      <path class="cls-5" d="m527.91,353.47c-1.98.73-3.88,1.04-5.66,1.74-1.07.42-2.45-.8-3.67-1.33-.1-.05-.19-.31-.16-.45.07-.39.38-.54.75-.55,2.23-.01,4.47-.03,6.7-.02.63,0,1.34-.18,2.04.62Z"/>
      <path class="cls-5" d="m529.49,357.61c-.14.72-.23,1.63-1.24,1.86-.8.18-1.85-1.07-1.8-2.04.05-.89.52-1.39,1.43-1.44.97-.06,1.59.53,1.61,1.63Z"/>
      <path class="cls-5" d="m493.54,367.9c.11-.79.64-1.15,1.06-1.55.41-.39.76-1.12,1.45-.83.68.29.83,1.04.9,1.74.13,1.28-.29,1.64-1.64,1.27-.56-.15-1.22-.02-1.78-.63Z"/>
      <path class="cls-6" d="m560,475.28c.17-.52.34-1.03.51-1.55.86.05,1.71.75,2.59-.15.55-.56,1.12-.11,1.41.47.24.48.84,1.03.25,1.58-.48.45-1.23.95-1.77.24-.88-1.17-1.98-.53-3-.58Z"/>
      <path class="cls-5" d="m535.7,361.47c-.85-.1-1.62-1.3-1.48-2.19.1-.66.43-1.14,1.17-1.1.95.05,1.97,1.08,1.79,1.83-.19.8-.7,1.34-1.47,1.46Z"/>
      <path class="cls-5" d="m427.75,404.5c-1.89,0-3.79,0-5.68,0,.1-.98.9-1.97,1.54-1.36,1.26,1.21,3.81-2,4.14,1.36Z"/>
      <path class="cls-5" d="m550.21,352.87c.56-.02,1,.22,1.37.61.43.44.88.94.44,1.57-.37.53-.92.29-1.39.06-.31-.15-.63-.28-.92-.46-.41-.26-1.05-.41-.77-1.1.22-.54.74-.67,1.28-.67Z"/>
      <path class="cls-5" d="m447.41,380.23c-.26-.02-.61,0-.93-.09-.73-.19-1.27-.65-.99-1.45.26-.72.95-.54,1.52-.41.32.08.62.26.92.41.38.2.8.46.74.92-.08.71-.72.54-1.27.61Z"/>
      <path class="cls-5" d="m445.85,388.52c.65.04,1.3.24,1.3.93,0,1.02-.84,1.1-1.63,1.09-.63,0-1.25-.12-1.12-.96.12-.8.74-1.05,1.45-1.07Z"/>
      <path class="cls-5" d="m543.84,353.05c.87-.03,1.34.65,1.91,1.09.37.29.28.76.03,1.15-.24.38-.6.6-1.05.56-.36-.03-.69-.26-.66-.63.06-.74-.72-1.38-.23-2.17Z"/>
      <path class="cls-5" d="m448.36,383.95c-.1.8-.64.94-1.3.85-.67-.1-1.15-.49-1.11-1.19.04-.85.74-.79,1.34-.79.74,0,1.1.37,1.07,1.12Z"/>
      <path class="cls-5" d="m465.27,377.79c1.19.28,1.76.95,1.69,2.13-.02.34-.2.66-.62.7-.38.04-.74-.12-.76-.49-.03-.74-.61-1.41-.32-2.34Z"/>
      <path class="cls-6" d="m611.03,452.65c.08.82-.55,1.01-1.08,1.22-.59.24-1.05-.07-1.17-.62-.16-.74.38-1.06,1.02-1.16.51-.08,1.03-.07,1.23.56Z"/>
      <path class="cls-6" d="m599.04,457.64c.94-.44,1.84-.72,2.52.25.14.2.17.55-.13.65-.98.33-1.67-.31-2.39-.89Z"/>
      <path class="cls-5" d="m513.99,369.92c-.04.59-.27.93-.78.89-.52-.04-.71-.41-.62-.9.08-.45.35-.82.82-.82.57,0,.57.5.58.82Z"/>
      <path class="cls-5" d="m514.45,363.58c-.09.48-.3.95-.94.9-.43-.03-.48-.42-.48-.76,0-.57.19-1.01.88-.92.4.05.53.36.54.79Z"/>
      <path class="cls-5" d="m449.45,404.5c-.69,0-1.38,0-2.06,0,.08-.85.41-1.55,1.39-1.43.82.1.62.87.68,1.43Z"/>
      <path class="cls-5" d="m432.05,398.63c-.55-.06-.66-.44-.64-.88.01-.33.05-.71.49-.75.5-.05.78.28.84.72.07.5-.29.74-.69.91Z"/>
      <path class="cls-5" d="m479.63,378.16c.16-.53.61-.48,1.01-.46.37.02.68.25.61.62-.08.43-.39.77-.89.69-.44-.07-.74-.35-.73-.86Z"/>
      <path class="cls-5" d="m532.15,351.45c1.37,0,2.74,0,4.11,0-.01.12-.02.24-.02.37-1.36-.16-2.78.37-4.08-.36Z"/>
      <path class="cls-5" d="m421.86,399.93c.37.06.62.28.64.65.02.37-.2.67-.59.62-.34-.05-.63-.33-.67-.67-.05-.4.24-.58.62-.6Z"/>
      <path class="cls-5" d="m438.19,394.89c.42.09.74.32.71.81-.02.28-.27.42-.52.35-.33-.1-.56-.34-.63-.69-.05-.3.13-.44.43-.47Z"/>
      <path class="cls-5" d="m444.07,391.74c-.09.38-.32.71-.81.67-.28-.02-.42-.27-.35-.52.1-.33.34-.57.69-.63.29-.05.45.12.46.47Z"/>
      <path class="cls-5" d="m538.34,357.74c.27.06.4.26.39.51-.01.36-.2.65-.58.52-.14-.04-.24-.39-.25-.6-.02-.26.15-.44.45-.43Z"/>
      <path class="cls-5" d="m427.27,398.04c.27.06.4.26.39.51-.01.36-.2.65-.58.52-.14-.04-.24-.39-.25-.6-.02-.26.15-.44.45-.43Z"/>
      <path class="cls-5" d="m463.68,381.35c-.18.34-.47.42-.8.29-.24-.1-.37-.37-.21-.56.12-.15.41-.22.62-.21.24.01.45.17.38.49Z"/>
      <path class="cls-6" d="m575.49,405.54h-.25s-.25,0-.25,0c0-.18,0-.35,0-.53.19-.29.46-.53.75-.22.29.3.05.57-.25.75Z"/>
      <path class="cls-5" d="m435.5,404.5c-.34,0-.69,0-1.03,0,.07-.38.07-.88.63-.78.34.06.37.47.4.78Z"/>
      <path class="cls-6" d="m598.09,451.73c.14.06.29.12.43.19-.06.14-.09.37-.19.41-.1.04-.28-.1-.42-.16.06-.14.12-.29.19-.43Z"/>
      <path class="cls-6" d="m589.26,459.65c-.06.14-.09.37-.2.41-.1.04-.28-.1-.42-.16.06-.14.09-.37.19-.41.1-.04.28.1.42.16Z"/>
      <path class="cls-5" d="m527.99,351.43c.16-.05.32-.05.47.02-.17.21-.32.19-.47-.02Z"/>
      <path class="cls-6" d="m177.2,542.96c.84-.01,1.71.12,2.24-.8.32-.56.89-.75,1.53-.73.5.02,1.09-.05,1.24.6.16.69-.37.84-.9.94-.33.06-.87.17-.75.5.79,2.27-1.45,2.18-2.34,3.12-.62-1.13-.98-2.33-1.02-3.62Z"/>
      <path class="cls-6" d="m176.67,539.86c1.27.6,1.3.74.52,2.07-.75-.55-.43-1.36-.52-2.07Z"/>
      <path class="cls-6" d="m175.65,536.24c.67.1,1.3.23.5,1.04-.41-.23-.5-.62-.5-1.04Z"/>
      <path class="cls-15" d="m234.57,541.4c-1.47.22-1.2,1.41-.99,2.21.79,2.98,1.18,6.03,1.69,9.06.4,2.33.77,4.66,1.23,7.42-1.15-.9-1.24-1.81-1.42-2.66-.74-3.5-1.37-7.04-2.27-10.5-.33-1.28-.2-2.55-.52-3.81-.52-2.07-1.73-3.84-2.39-5.84-.23-3.14-1.13-6.18-1.55-9.29.66-.53.58-1.23.31-1.87-.31-.74-.34-1.5-.32-2.27.78-.71.51-1.56.32-2.4-.27-1.17-.62-2.32-.83-3.49-.82-4.62-1.56-9.26-2.41-13.88-.54-2.94-1.15-5.87-1.62-8.81-.47-2.95-1.23-5.85-1.49-8.83-.23-2.65-1.15-5.15-1.67-7.74-1.26-6.28-2.28-12.6-3.41-18.9-.59-3.28-1.2-6.55-1.83-9.82-.7-3.6-1.06-7.28-1.87-10.85-1.3-5.76-2.09-11.6-3.26-17.37-.13-.67-.27-1.16-1.02-1.24,0-.34,0-.67,0-1.01.99-1.28.26-2.76.5-4.13,1.03.02,1.31.71,1.64,1.55.3.76.13,1.95,1.42,2.06.02.3.03.61.05.91-.02.69-.22,1.48.82,1.66,1.96,9.54,3.95,19.08,5.87,28.63.74,3.68,1.73,7.32,2.1,11.08l.22.56c.08.53.16,1.06.24,1.59-1.29.21-1.1,1.19-.92,1.99,1.32,5.91,2.22,11.89,3.2,17.86.82,5.04,1.96,10.03,2.91,15.05,1.35,7.11,2.55,14.25,3.75,21.39,1.1,6.55,2.59,13.03,3.89,19.55.15.75.34,1.54-.38,2.15Z"/>
      <path class="cls-14" d="m209.26,420.5c.74.09.88.58,1.02,1.24,1.17,5.78,1.95,11.62,3.26,17.37.8,3.56,1.17,7.24,1.87,10.85.63,3.27,1.24,6.54,1.83,9.82,1.13,6.3,2.15,12.63,3.41,18.9.52,2.58,1.44,5.08,1.67,7.74.26,2.98,1.01,5.89,1.49,8.83.47,2.93,1.09,5.87,1.62,8.81.85,4.62,1.59,9.26,2.41,13.88.21,1.18.56,2.33.83,3.49.19.83.47,1.69-.32,2.4-1.21-5.48-2.36-10.98-3.67-16.43-.63-2.62-.81-5.37-2.01-7.85,0,0,0,0,0,0-.12-.87.31-1.85-.51-2.57,0,0,0,0,0,0-.12-.87.3-1.85-.52-2.57,0,0,0,0,0,0-.07-.72.2-1.53-.5-2.1,0-.16,0-.32-.02-.47-.07-.72.22-1.52-.51-2.08,0,0,0,0,0,0,0-.52.02-1.04.03-1.56.58-.44.49-1.03.37-1.64-1.52-7.51-2.82-15.06-4.13-22.61-1.44-8.3-3.04-16.58-4.56-24.87-.11-.6-.42-.9-.99-.98-.68-1.34.33-2.72-.08-4.07.07-.7-.27-1.05-.94-1.1-.2-1.02-.69-1.99-.52-3.08.85-1.15.41-2.37.25-3.61-.25-1.9-.92-3.75-.76-5.71Z"/>
      <path class="cls-10" d="m211.31,438.07c.57.08.88.37.99.98,1.51,8.29,3.12,16.57,4.56,24.87,1.31,7.55,2.61,15.1,4.13,22.61.12.61.21,1.2-.37,1.64-.05-.41-.1-.81-.52-1.03,0,0,0,0,0,0-.03-.75.16-1.54-.5-2.14.02-.14.02-.27-.02-.41-.05-.75.17-1.56-.5-2.16.02-.15.01-.29-.02-.43-.06-.72.21-1.52-.51-2.09,0,0,0,0,0,0-.03-.5-.05-1-.08-1.5-1.37-3.44-1.55-7.15-2.46-10.7-1.1-4.29-1.46-8.74-2.92-12.95-.31-.9-.22-1.86-.14-2.8.54-.46.47-1.09.36-1.66-.38-1.99-.87-3.96-1.2-5.96-.35-2.08-.98-4.12-.8-6.27Z"/>
      <path class="cls-9" d="m211.31,438.07c-.19,2.15.45,4.19.8,6.27.33,2,.83,3.97,1.2,5.96.11.57.18,1.2-.36,1.66-.04-.18-.07-.36-.11-.53.01-.49.1-1-.35-1.38-.57-2.43-1.14-4.87-1.71-7.3.02-.61.08-1.24-.44-1.72-.03-.29-.06-.58-.09-.87.03-.61.06-1.22-.44-1.7-.67-4.66-1.79-9.22-2.73-13.82.05-.44-.04-.83-.38-1.13-.27-3.35-1.38-6.54-1.87-9.85-.35-2.37-1.28-4.63-1.27-7.06q1.97.16,2.11,2.52c-.05.46.02.86.5,1.08,0,.33.01.66.02.98-.06.94.04,1.85.23,2.78.67,3.24,1.09,6.54,1.85,9.76.48,2.03.62,4.17,1.51,6.1-.17,1.08.32,2.06.52,3.08-.05.68.29,1.03.94,1.1.41,1.35-.6,2.73.08,4.07Z"/>
      <path class="cls-6" d="m222.67,499.56c1.2,2.48,1.38,5.22,2.01,7.85,1.31,5.46,2.45,10.95,3.67,16.43-.03.77,0,1.53.32,2.27.27.65.35,1.34-.31,1.87-.72-.08-1-.5-1.04-1.21-.35-5.65-1.79-11.1-2.88-16.62-.69-3.5-1.87-6.94-1.76-10.59Z"/>
      <path class="cls-6" d="m212.24,543.74c-.08.37-.27.63-.65.7-.66.13-1.35.2-1.99.4-.84.27-1.29-.09-1.62-.79-.22-.46-.54-.9-.64-1.39-.2-.95-.38-1.71-1.61-1.92-.68-.12-1.38-.95-.71-1.76.5-.61,1.29-.82,2-.06.52.56,1.14,1.04,1.61,1.64.69.9,1.4,1.69,2.58,1.93.65.13,1.03.56,1.05,1.24Z"/>
      <path class="cls-14" d="m205.66,409.11q-.13-2.36-2.11-2.52c-.02-.35-.04-.7-.06-1.05,1.55,0,3.11,0,4.67,0-1.74,1.02-1.85,1.07-.96,2.92,1.08,2.23.97,4.88,2.55,6.91-.24,1.37.49,2.85-.5,4.13-.28-.21-.52-.46-.51-.82.06-2.15-1.03-4.03-1.42-6.07-.12-.65-.28-1.35-1.16-1.43,0-.33-.01-.66-.02-.98.76-.78.13-.93-.49-1.08Z"/>
      <path class="cls-5" d="m186.12,356.37c-.61-.16-.75-.63-.48-1.14.48-.91,1.25-1.59,2.1-2.16.47-.31.98-.2,1.39.19.41.39.52.86.28,1.38-.17.37-2.8,1.78-3.29,1.73Z"/>
      <path class="cls-6" d="m220.38,540.35c-.13.7-2.46,1.74-3.03,1.36-.33-.22-.36-.58-.25-.91.26-.77,1.74-1.56,2.53-1.33.41.12.75.39.74.89Z"/>
      <path class="cls-5" d="m226.74,394.54c0,.7-.23,1.08-.72,1.06-.67-.02-.78-.57-.72-1.1.05-.46.31-.79.84-.7.54.09.59.52.6.74Z"/>
      <path class="cls-6" d="m185.86,539.23c-.13.39-.4.54-.78.38-.38-.16-.9-.27-.89-.77.02-.61.59-.52.98-.48.47.05.76.34.68.87Z"/>
      <path class="cls-5" d="m214.01,399.46c.38-.04.67.08.76.47.12.52-.15.83-.64.85-.36.02-.65-.21-.66-.61-.01-.36.13-.65.54-.71Z"/>
      <path class="cls-5" d="m212.7,383.22c-.53.05-.78-.21-.8-.71-.01-.29.15-.49.43-.51.5-.04.76.28.82.74.05.31-.2.42-.46.49Z"/>
      <path class="cls-6" d="m199.22,542.6c-.12.34-.34.62-.68.66-.4.05-.63-.25-.59-.61.05-.49.38-.73.88-.6.26.07.39.28.39.55Z"/>
      <path class="cls-5" d="m186.71,364.12c-.11-.07-.42-.16-.46-.31-.11-.41.22-.54.56-.54.26,0,.46.15.47.42,0,.27-.18.42-.57.43Z"/>
      <path class="cls-6" d="m226.72,541.59c-.03.35-.15.58-.41.59-.45,0-.49-.34-.43-.67.04-.24.2-.5.49-.37.17.08.27.33.36.45Z"/>
      <path class="cls-5" d="m193.49,363.27c-.18.34-.47.42-.8.29-.24-.1-.37-.37-.21-.56.12-.15.41-.22.62-.21.24.01.45.17.38.49Z"/>
      <path class="cls-5" d="m191.9,370.48c.13.07.46.12.51.28.14.38-.13.58-.49.6-.25.01-.47-.12-.52-.38-.06-.3.15-.42.5-.5Z"/>
      <path class="cls-6" d="m222.16,496.97c.83.73.4,1.71.51,2.57-.89-.71-.4-1.7-.51-2.57Z"/>
      <path class="cls-6" d="m221.63,494.39c.82.73.4,1.71.52,2.57-.89-.71-.4-1.71-.52-2.57Z"/>
      <path class="cls-6" d="m220.11,487.14c.42.22.47.62.52,1.03,0,.52-.02,1.04-.03,1.56-.88-.73-.41-1.71-.49-2.59Z"/>
      <path class="cls-5" d="m221.95,395.58c-.06.14-.1.37-.2.41-.1.04-.28-.1-.42-.17.06-.14.09-.37.2-.41.1-.04.28.1.42.17Z"/>
      <path class="cls-6" d="m218.55,479.92c.72.56.44,1.36.51,2.09-.78-.55-.47-1.36-.51-2.09Z"/>
      <path class="cls-6" d="m220.6,489.74c.72.56.44,1.36.51,2.08-.76-.55-.45-1.36-.51-2.08Z"/>
      <path class="cls-6" d="m219.08,482.44c.68.6.45,1.41.5,2.16-.8-.57-.48-1.4-.5-2.16Z"/>
      <path class="cls-6" d="m221.13,492.29c.71.57.44,1.37.5,2.1-.78-.55-.45-1.37-.5-2.1Z"/>
      <path class="cls-5" d="m200.3,370.09c.14.06.37.1.41.2.04.1-.1.28-.17.42-.14-.06-.37-.09-.41-.2-.04-.1.1-.28.17-.42Z"/>
      <path class="cls-6" d="m219.6,485c.66.6.47,1.39.5,2.14-.83-.56-.47-1.39-.5-2.14Z"/>
      <path class="cls-6" d="m218.47,478.41c.03.5.05,1,.08,1.5-.69-.47-.69-.97-.08-1.5Z"/>
      <path class="cls-10" d="m212.5,450.04c.45.37.36.89.35,1.38-.52-.36-.49-.85-.35-1.38Z"/>
      <path class="cls-5" d="m210.35,441.02c.52.48.46,1.1.44,1.72-.66-.44-.51-1.09-.44-1.72Z"/>
      <path class="cls-5" d="m209.82,438.45c.5.47.47,1.09.44,1.7-.65-.44-.5-1.08-.44-1.7Z"/>
      <path class="cls-5" d="m206.7,423.5c.35.3.44.69.38,1.13-.4-.28-.44-.69-.38-1.13Z"/>
      <path class="cls-1" d="m212.87,419.88c-.02-.3-.03-.61-.05-.91.13-1.85-.43-3.62-.69-5.42-.4-2.7-1.25-5.33-1.47-8.07,0,0,.1,0,.1,0,7.06.03,14.13.18,21.19-.05.52,0,1.04,0,1.56,0,1.03.16,2.06.2,3.1.02.52,0,1.03,0,1.55,0,.52.16,1.03.16,1.55,0,.34,0,.69,0,1.03,0,.35,0,.69,0,1.04-.01.31.17.62.34.93.52,22.54.02,45.07.05,67.61.06,6.45,0,12.9-.06,19.35-.09,2.06.02,4.12.07,6.18.05,6.87-.05,13.75.24,20.62-.04.51.02,1.03.06,1.54.06,22.83.01,45.66.03,68.5.03,4.03,0,8.06-.06,12.09-.09,7.85.04,15.69.09,23.54.13.94,0,1.88.04,2.81.06.84.66,1.82.37,2.74.37,22.54.02,45.08.03,67.63.02,1.03,0,2.06-.11,3.08-.16,9.26.05,18.51.1,27.77.15.15.05.3.08.45.09.3,1.5-.31,2.9-.62,4.3-4.04,18.09-8.15,36.17-12.22,54.26-4.48,19.93-8.95,39.86-13.42,59.79-4.13,18.43-8.23,36.86-12.44,55.27-.78,3.42-1.09,6.96-2.53,10.22-.34.19-.68.37-1.01.56-18.81-.01-37.63-.03-56.44-.03-8.59,0-17.18.05-25.77.08-.86-.02-1.72-.06-2.58-.06-22.21-.02-44.42-.04-66.62-.05-5.33,0-10.67.05-16,.08-.51,0-1.02,0-1.53-.01-2.07-.14-4.15-.16-6.22,0-5.85-.02-11.71-.03-17.56-.05-.79-.79-1.79-.47-2.7-.47-21.77-.03-43.54-.04-65.31-.04-4.21,0-8.43.07-12.64.11-.82-.17-1.24-.95-1.96-1.27-.78-3.85-1.52-7.7-2.36-11.54-2.69-12.44-5.37-24.88-8.18-37.29-.56-2.47-.74-5.06-1.92-7.38,0-.15-.02-.31-.06-.45.06-.75.24-1.52-.48-2.09-.02-.18-.04-.35-.06-.53.1-.59.14-1.17-.42-1.59-.04-.33-.08-.67-.12-1,.12-.59.15-1.16-.41-1.57-.03-.43-.02-.86-.11-1.28-1.8-8.37-3.65-16.73-5.27-25.14-.49-2.58-.61-5.27-1.75-7.71-.83-5.85-2.23-11.59-3.38-17.38-.73-3.68-1.26-7.42-2.41-11.01-.08-.53-.16-1.06-.24-1.59.09-.25-.03-.42-.22-.56-.36-3.76-1.36-7.39-2.1-11.08-1.92-9.55-3.91-19.09-5.87-28.63-.09-.64-.07-1.34-.82-1.66Zm257.32,121.55c.06-.06.17-.12.16-.16-.03-.14-.1-.27-.16-.4,0-1.19.01-2.38.02-3.57.06-.06.17-.13.16-.17-.03-.14-.11-.26-.17-.39,0-23.84,0-47.69.02-71.53,0-5.94.05-11.88.08-17.81.6-3.1.49-6.2.06-9.3,0-.35,0-.69,0-1.04.42-.74.54-1.44-.19-2.08-.38-.33-.77-.67-1.15-1-.17-.43-.57-.48-.94-.57-.94-1.18-2.2-1.51-3.66-1.5-3.96.03-7.92.01-11.88,0-11.62,0-23.23-.02-34.85-.02-2.74,0-3.3.56-3.33,3.32-.03,1.98-.02,3.96-.02,5.94-.01,11.88-.04,23.75-.01,35.63,0,.95-.49,2.1.65,2.82,0,.57,0,1.13,0,1.7-1.13.72-.65,1.87-.66,2.82-.04,21.43-.01,42.85-.06,64.28,0,3.43.03,6.86-.23,10.3-.18,2.46-.25,5.1.8,7.52.07,1.01.14,2.02.22,3.03-.11.3.05.46.31.56.33.54.79.92,1.36,1.17,1.2.72,2.52.3,3.77.31,15.43.05,30.86.06,46.29.06.73,0,1.57.27,2.12-.54.31-.28.68-.52.78-.96.49-.38.38-.92.38-1.42,0-6.26-.01-12.53-.02-18.79l.15.06c.05-.06.16-.13.15-.17-.03-.14-.1-.27-.15-.4-.05-.68-.11-1.36-.16-2.04.01-1.72.02-3.44.03-5.16,0-.18,0-.36,0-.53,0,0,.12.04.12.04Zm-165.31-5.64c-.02,2.15-.05,4.3-.04,6.45.03,3.86-.24,7.73.09,11.59,0,.32,0,.65,0,.97-.23,1.74-.25,3.48,0,5.22,0,.67,0,1.34-.01,2.01-.14.37-.14.73,0,1.1v.98c-.14.36-.14.72,0,1.09,0,1.19,0,2.38,0,3.57-.16.47.06.74.46.93.08.12.19.18.34.17.22.31.45.62.67.93.65.84,1.57.53,2.39.53,15.77.02,31.54.03,47.31.02.82,0,1.73.28,2.44-.44.17-.21.33-.43.5-.64,1.35-.65.94-1.94,1.08-3.02.68-2.12.92-4.33.94-6.53.05-7.72.02-15.45.02-23.17,0-1.54-.12-3.06-.74-4.49,0-.63,0-1.26,0-1.88.62-1.46,1.18-2.93.29-4.49.43-3.52-.08-7.02-.11-10.53.32-.17.54-.43.54-.79.01-2.78.02-5.55,0-8.33,0-.35-.21-.62-.52-.8.18-2.85-.47-5.7-.1-8.55,1.13-.72.65-1.87.65-2.82.04-19.84.04-39.69.05-59.53,0-2.98-.46-3.47-3.41-3.48-5.24-.02-10.48-.01-15.72-.02-.19-.24-.38-.24-.57,0-.33,0-.65,0-.98,0-.53-.53-1.07-.53-1.6,0-.85,0-1.69,0-2.54,0-1.91-.68-3.82-.68-5.72,0-.33,0-.66,0-.99,0-.49-.47-1.1-.42-1.7-.42-5.6,0-11.19,0-16.79,0-.6,0-1.22-.07-1.67.47-.55.34-1.1.67-1.66,1.01-.39.05-.76.12-.97.52-1.29.72-1.54,1.85-1.52,3.24.05,3.75-.02,7.5-.05,11.25-.06.05-.19.11-.18.15.02.14.09.27.14.4,0,14.37,0,28.74-.01,43.11-.02,11.1-.07,22.2-.1,33.3-.06.06-.17.13-.16.17.03.14.11.27.17.4,0,.33-.02.65-.02.98-.06.06-.17.12-.16.17.03.14.1.27.16.41,0,.33,0,.67,0,1-.68,2.59-.28,5.21-.22,7.82Z"/>
      <path class="cls-3" d="m525.4,590.49c1.44-3.26,1.75-6.8,2.53-10.22,4.21-18.41,8.3-36.85,12.44-55.27,4.47-19.93,8.93-39.87,13.42-59.79,4.07-18.09,8.18-36.17,12.22-54.26.31-1.4.92-2.8.62-4.3,1.76-.04,3.52-.08,5.29-.13.33.2.67.39,1,.59.82,1.18.1,2.39-.13,3.47-1.67,7.78-3.51,15.52-5.25,23.28-2.73,12.18-5.4,24.38-8.12,36.56-1.7,7.6-3.45,15.18-5.15,22.77-2.78,12.43-5.52,24.87-8.31,37.31-1.66,7.43-3.4,14.84-5.07,22.26-2.08,9.26-4.12,18.53-6.2,27.79-.83,3.66-1.73,7.31-2.6,10.97-2.27-.02-4.61.32-6.68-1.02Z"/>
      <path class="cls-8" d="m329.66,405.95c-6.45.03-12.9.09-19.35.09-22.54,0-45.07-.04-67.61-.06.46-.75,1.21-.52,1.86-.52,28.17.03,56.35.06,84.52.1.17,0,.34.03.51.05.01.11.03.22.06.33Z"/>
      <path class="cls-14" d="m438.6,405.96c-4.03.03-8.06.09-12.09.09-22.83,0-45.66-.02-68.5-.03-.51,0-1.03-.04-1.54-.06-.01-.12-.04-.23-.07-.34,5.76-.03,11.52-.1,17.28-.1,20.73,0,41.46.01,62.19.04.92,0,1.9-.29,2.73.39Z"/>
      <path class="cls-2" d="m210.66,405.49c.22,2.74,1.07,5.37,1.47,8.07.26,1.8.83,3.57.69,5.42-1.29-.11-1.13-1.3-1.42-2.06-.33-.84-.62-1.53-1.64-1.55-1.58-2.03-1.47-4.68-2.55-6.91-.89-1.85-.79-1.9.96-2.92.83-.02,1.66-.03,2.49-.05Z"/>
      <path class="cls-8" d="m538.4,406.39c-1.03.06-2.06.16-3.08.16-22.54,0-45.08,0-67.63-.02-.92,0-1.9.29-2.74-.37,2.49-.04,4.97-.12,7.46-.12,21.98.01,43.96.04,65.93.06,0,.1.03.2.06.3Z"/>
      <path class="cls-9" d="m538.4,406.39c-.04-.1-.06-.19-.06-.3,9.25-.13,18.51-.1,27.76.09.04.12.06.24.07.36-9.26-.05-18.51-.1-27.77-.15Z"/>
      <path class="cls-9" d="m356.4,405.62c.04.11.06.22.07.34-6.87.27-13.75-.01-20.62.04-2.06.02-4.12-.03-6.18-.05-.02-.11-.04-.22-.06-.33,7.56,0,15.11-.02,22.67-.02,1.37,0,2.75.02,4.12.03Z"/>
      <path class="cls-14" d="m231.95,405.44c-7.06.23-14.12.08-21.19.05.46-.53,1.08-.46,1.67-.46,5.94,0,11.88,0,17.81,0,.6,0,1.22-.08,1.7.41Z"/>
      <path class="cls-14" d="m566.17,406.54c0-.12-.03-.24-.07-.36,1.94-.02,3.91-.52,5.81.33-1.76.04-3.52.08-5.29.13-.15,0-.3-.04-.45-.09Z"/>
      <path class="cls-14" d="m236.61,405.46c-1.03.18-2.06.14-3.1-.02,1.04-.65,2.07-.64,3.1.02Z"/>
      <path class="cls-14" d="m239.71,405.47c-.52.15-1.03.16-1.55,0,.52-.55,1.04-.55,1.55,0Z"/>
      <path class="cls-14" d="m241.78,405.46c-.35,0-.69,0-1.04.01.34-.44.69-.46,1.04-.01Z"/>
      <path class="cls-1" d="m389.7,227.78c-.05.39.09.73.34,1.03.07.43.17.84.6,1.06-.03.92.53,1.62.91,2.38,8.71,17.48,17.45,34.95,26.15,52.44,10.57,21.24,21.1,42.5,31.63,63.76.33.67.91,1.28.72,2.16-.91.37-1.86.17-2.79.18-7.57.08-15.14-.2-22.72.09-32.84-.05-65.68-.09-98.52-.14-.31-1.14.45-1.97.9-2.87,5.86-11.65,11.76-23.3,17.63-34.95,13.22-26.24,26.45-52.48,39.63-78.74,1.03-2.05,2.42-3.97,2.79-6.33.16-.19.32-.39.48-.58.81-.08,1.54.17,2.25.51Z"/>
      <path class="cls-5" d="m326.03,350.73c32.84.05,65.68.09,98.52.14.04.14.1.27.17.4-7.66.01-15.32.04-22.97.04-24.44,0-48.88,0-73.32-.02-1,0-2.08.32-2.99-.41.2-.05.39-.09.59-.14Z"/>
      <path class="cls-9" d="m390.64,229.87c-.43-.22-.52-.64-.6-1.06,0,0,0,.02,0,.02.18-.17.35-.33.53-.5.5.02,1,.03,1.49.05.86.93.81,2.44,2,3.15.14.2.27.39.41.59.17.34.35.68.52,1.02.15.52.16,1.1.64,1.47.13.2.26.41.39.61.18.34.35.68.53,1.01.17.35.34.69.51,1.03.17.35.34.69.51,1.04.27,1.16.7,2.24,1.55,3.11.17.35.34.69.5,1.04.07.46.15.93.22,1.39-.86,0-1.1-.69-1.42-1.28-1.44-2.71-2.82-5.45-4.34-8.12-.94-1.66-1.66-3.54-3.46-4.57Z"/>
      <path class="cls-10" d="m450.09,346.51c1.7.67,1.54,2.35,2,3.69-1.4-.83-1.79-2.22-2-3.69Z"/>
      <path class="cls-10" d="m447.36,340.47c1.02.6,1.47,1.49,1.37,2.66-1.12-.54-1.33-1.56-1.37-2.66Z"/>
      <path class="cls-7" d="m452.63,350.24c.65.06.95.43.95,1.06-.59-.03-1.18-.07-1.77-.1.07-.15.14-.3.22-.44.2-.17.4-.34.6-.52Z"/>
      <path class="cls-10" d="m431.14,306.3c.07.36.14.73.21,1.09-.52-.28-.57-.65-.21-1.09Z"/>
      <path class="cls-10" d="m452.63,350.24c-.2.17-.4.34-.6.52.02-.18.05-.37.07-.55.18.01.36.02.53.04Z"/>
      <path class="cls-10" d="m448.91,343.59c.27.07.42.23.33.53-.11-.18-.22-.35-.33-.53Z"/>
      <path class="cls-10" d="m449.41,344.66c.27.06.41.2.32.49-.11-.17-.21-.33-.32-.49Z"/>
      <path class="cls-10" d="m446.85,339.43c.27.09.44.25.38.56-.13-.19-.25-.37-.38-.56Z"/>
      <path class="cls-10" d="m446.34,338.38c.28.09.44.26.39.57-.13-.19-.26-.38-.39-.57Z"/>
      <path class="cls-9" d="m326.03,350.73c-.2.05-.39.09-.59.14-.49-.05-.97-.09-1.46-.14-.22-.33-.45-.66-.67-1,.65-2.06,1.76-3.92,2.72-5.83,9.24-18.45,18.48-36.9,27.75-55.33,9.73-19.35,19.5-38.68,29.27-58.01.38-.76.65-1.6,1.3-2.21.94.17,1.72-.51,2.63-.5-.37,2.36-1.76,4.27-2.79,6.33-13.18,26.26-26.41,52.5-39.63,78.74-5.87,11.65-11.76,23.29-17.63,34.95-.45.9-1.21,1.72-.9,2.87Z"/>
      <path class="cls-5" d="m323.31,349.73c.22.33.45.66.67,1-.82.51-1.71.64-2.65.56.44-.8.98-1.47,1.98-1.56Z"/>
      <path class="cls-9" d="m389.7,227.78c-.71-.34-1.44-.59-2.25-.51.55-.7,1.3-.53,1.99-.39.51.1.55.49.26.91Z"/>
      <path class="cls-11" d="m390.58,228.32c-.18.17-.35.33-.53.5.05-.3.26-.44.53-.5Z"/>
      <path class="cls-10" d="m525.4,590.49c2.07,1.35,4.4,1,6.68,1.02-.45,2.31-.63,4.7-2.06,6.71-1,.69-2.14.54-3.25.54-35.03,0-70.05-.01-105.08-.02-21.6,0-43.21.33-64.8-.1-36.39-.73-72.78-.12-109.17-.41-.77,0-1.55-.05-2.32-.08-.22-.45-.55-.78-1.03-.96,0-.34,0-.68-.01-1.02.67-.51.92-1.26,1.1-2.04,1.01-.18,1.04-.89.86-1.66-.12-.53-.58-1.05.13-1.49.59.29,1.17.67,1.63-.23.26-.5.63-.95.96-1.42.72.32,1.14,1.1,1.96,1.27.83.69,1.82.39,2.73.4,12.47.03,24.94.04,37.41.03,13.5,0,27.01-.02,40.51-.03,5.85.02,11.71.03,17.56.05,2.07.68,4.15.7,6.22,0,.51,0,1.02,0,1.53,0,.65.61,1.46.42,2.21.42,27.68.01,55.36.02,83.04.03,26.58.02,53.17.04,79.75.05.83,0,1.75.27,2.42-.52.34-.19.68-.37,1.01-.56Z"/>
      <path class="cls-14" d="m246.46,590.99c-.72.44-.26.96-.13,1.49.18.77.15,1.48-.86,1.66-1.18-1.21-.9-2.83-1.24-4.29-1.14-4.94-2.07-9.93-2.98-14.92-.11-.6-.4-.9-.97-.99,0-.69-.02-1.37-.03-2.06.46-1.59.05-3.24-1.02-4.15,0-.34,0-.68,0-1.02.26-.24.51-.51.45-.88-.6-3.79-1.17-7.58-2.08-11.32-.12-.5-.5-.65-.94-.74,0-.34,0-.68,0-1.02.77-.83.58-1.35-.51-1.57,0-.51,0-1.02,0-1.53.59-1.73.17-3.65-1.03-4.67,0-.34,0-.68,0-1.02.77-.83.58-1.35-.51-1.57,0-.34,0-.68,0-1.02.71-.61.53-1.41.38-2.15-1.3-6.52-2.79-13-3.89-19.55-1.2-7.14-2.4-14.28-3.75-21.39-.95-5.02-2.09-10.01-2.91-15.05-.97-5.97-1.87-11.95-3.2-17.86-.18-.8-.38-1.79.92-1.99,1.15,3.59,1.68,7.33,2.41,11.01,1.15,5.79,2.55,11.53,3.38,17.38-.73.47-.61,1.15-.45,1.83.29,1.24.62,2.48.85,3.73,2.09,11.22,4.17,22.44,6.22,33.66.16.9.65,1.11,1.4,1.15.04.19.07.38.11.57-.34.43-1.12.6-.87,1.39.2.63.8.53,1.27.64.02.3.04.61.06.91-.54.13-.99.37-.8,1.03.18.64.79.53,1.26.64.02.48.05.95.07,1.43-.43.11-.86.25-.84.79.03.87.76.77,1.32.87,0,.31.02.61.03.92-.51.12-.94.32-.83.96.08.5.49.58.9.63.02.34.03.69.05,1.03-.87.83-.61,1.32.47,1.57.01.34.03.68.04,1.01-.74.9-.94,1.68.49,2.08.02.34.03.68.05,1.02-.88.83-.61,1.32.47,1.57.02.34.03.68.05,1.02-.88.83-.61,1.32.46,1.57.02.51.05,1.02.07,1.52-.75,1.13-.66,1.31.85,1.63.02.3.04.61.05.91-.51.12-.95.31-.85.97.08.51.5.58.91.65.21.48.51.93.46,1.49-.31.06-.68.13-.73.46-.07.54.4.56.77.64.57.36.47.94.46,1.48-.51.12-.96.31-.84.97.09.51.51.58.92.64l.04,1.02c-.75.91-.97,1.69.48,2.08.61,1.12.92,2.33.99,3.6-.77.83-.52,1.36.49,1.67.06.99-.05,1.99.28,2.97.39,1.18.88,2.34.78,3.63-.5.37-.49.72.05,1.05.46,1.51.52,3.07.6,4.63-.13.7.26,1.02.87,1.17,0,.47.02.95.03,1.42-.5.38-.49.73.06,1.05,0,.51.02,1.02.02,1.54Z"/>
      <path class="cls-15" d="m240.28,573.94c.57.09.86.39.97.99.91,4.99,1.83,9.97,2.98,14.92.34,1.46.05,3.08,1.24,4.29-.18.78-.42,1.52-1.1,2.04-.8-.78-.82-1.9-.93-2.83-.34-2.78-1.3-5.39-1.95-8.08-.3-1.22-.94-2.35-.31-3.68.34-.71-.29-1.22-.73-1.76-.48-.58-1.01-1.33-.47-2.08.6-.82.42-1.21-.31-1.85-.97-.86-.19-1.47.62-1.93Z"/>
      <path class="cls-15" d="m236.65,553.78c.44.09.82.24.94.74.91,3.73,1.48,7.53,2.08,11.32.06.37-.18.64-.45.88-.99-1.67-.89-3.58-1.22-5.4-.45-2.51-.91-5.03-1.36-7.54Z"/>
      <path class="cls-4" d="m591.52,464.43c1.07.04,2.24-.28,2.91,1,.46.87,1.41-.03,2.09.38-2.2,2.28-3.88,1.79-5-1.38Z"/>
      <path class="cls-15" d="m235.09,545c1.2,1.02,1.62,2.94,1.03,4.67-.77-1.46-1.05-3.03-1.03-4.67Z"/>
      <path class="cls-15" d="m239.23,567.73c1.08.91,1.48,2.56,1.02,4.15-.83-1.26-1.11-2.66-1.02-4.15Z"/>
      <path class="cls-15" d="m244.38,597.2c.48.17.81.5,1.03.96-.48.6-1.13,1.34-1.79.68-.42-.41.21-1.21.76-1.64Z"/>
      <path class="cls-15" d="m236.13,551.2c1.09.22,1.28.74.51,1.57-.65-.37-.54-.98-.51-1.57Z"/>
      <path class="cls-15" d="m237.04,561.86c-.08.12-.17.42-.33.46-.43.11-.51-.25-.52-.58,0-.27.15-.46.43-.45.27.01.4.21.42.57Z"/>
      <path class="cls-15" d="m234.58,542.42c1.09.22,1.28.74.51,1.57-.65-.37-.54-.98-.51-1.57Z"/>
      <path class="cls-15" d="m237.96,566.86c-.14.06-.32.19-.42.14-.1-.05-.12-.27-.18-.41.14-.06.32-.19.42-.15.1.05.12.27.18.41Z"/>
      <path class="cls-15" d="m237.44,564.28c-.14.06-.32.19-.42.14-.1-.05-.12-.27-.18-.41.14-.06.32-.19.42-.15.1.05.12.27.18.41Z"/>
      <path class="cls-3" d="m206.18,411.17c.87.08,1.03.79,1.16,1.43.39,2.04,1.48,3.92,1.42,6.07-.01.36.23.61.51.82,0,.34,0,.67,0,1.01-.16,1.96.51,3.8.76,5.71.16,1.24.6,2.45-.25,3.61-.89-1.93-1.03-4.06-1.51-6.1-.76-3.22-1.18-6.52-1.85-9.76-.2-.94-.3-1.84-.23-2.78Z"/>
      <path class="cls-2" d="m212.87,419.88c.75.32.73,1.01.82,1.66-1.03-.17-.84-.96-.82-1.66Z"/>
      <path class="cls-14" d="m221.66,461.25c.19.14.31.31.22.56-.07-.19-.15-.37-.22-.56Z"/>
      <path class="cls-10" d="m211.24,434c-.66-.08-.99-.43-.94-1.1.68.06,1.01.41.94,1.1Z"/>
      <path class="cls-3" d="m205.66,409.11c.63.15,1.26.3.49,1.08-.47-.22-.54-.62-.49-1.08Z"/>
      <path class="cls-7" d="m414.98,481.3c0-.57,0-1.13,0-1.7.52-.97.31-2.02.31-3.03.02-12.87.02-25.74.05-38.6,0-1-.29-2.06.35-3,7.23,0,14.45.14,21.67,0,9.88-.19,19.73.88,29.61.56,2.01-.06,2.02.05,2.08,2,.01.43,0,.86,0,1.29,0,15.97,0,31.94,0,47.91,0,2.36-.21,4.72-.14,7.1.06,2.35.26,4.76.05,7.08-.41,4.48-.38,8.96-.4,13.44-.07,18.49-.03,36.99-.04,55.48-16.57,0-33.13,0-49.7,0-2.43,0-2.45-.03-2.47-2.4-.02-2.32-.02-4.64,0-6.95.01-.92-.24-1.52-1.28-1.48-.14-.35-.14-.7,0-1.05,1.04.04,1.27-.57,1.27-1.48-.02-5.57-.02-11.14,0-16.72,0-.78-.21-1.35-1.08-1.44,0-.33,0-.67,0-1,.41-.07.95-.11.96-.62.04-1.9.23-3.81-.1-5.7-.06-.34-.52-.37-.85-.42v-2.56c1.52-1.2,1.53-2.95.01-4.16,0-2.23,0-4.47,0-6.7.38-.08.9-.06.8-.64-.06-.34-.48-.37-.8-.41,0-2.24,0-4.47.01-6.71.34-.06.81-.1.85-.45.15-1.15.13-2.31-.16-3.44-.03-.13-.45-.17-.69-.24-.02-6.03.01-12.05-.08-18.07-.03-1.95.35-3.94-.29-5.87Z"/>
      <path class="cls-12" d="m360.52,516.15c.03,3.51.54,7.02.11,10.53-.96,1.44-.53,2.97-.3,4.49,0,.63,0,1.26,0,1.88-.35.82-.23,1.69-.23,2.54,0,10.55,0,21.1,0,31.64-.15,1.08.26,2.37-1.08,3.02-.17-.15-.34-.3-.51-.45,0-26.76.01-53.52.01-80.29,0-17.3,0-34.59,0-51.89,0-2.61-.02-2.64-2.5-2.64-15.58,0-31.15,0-46.73,0-2.4,0-2.4.03-2.44,2.44-.3,17.79.01,35.58-.37,53.38-.56,26.32-.14,52.66-.13,78.99-.22.02-.43.04-.65.06-.14,0-.26-.05-.34-.17,0-.39-.17-.69-.46-.93,0-1.19,0-2.38,0-3.57.41-.36.41-.72,0-1.09,0-.33,0-.65,0-.98.4-.37.39-.73,0-1.1,0-.67,0-1.34.01-2.01.58-1.74.59-3.48,0-5.22,0-.32,0-.65,0-.97.3-.35.36-.76.36-1.2-.01-5.65-.03-11.31-.04-16.96-.08-2.57.22-5.14-.15-7.7,0-.33,0-.67,0-1,0-.19,0-.38,0-.57,0-.33.02-.65.02-.98,0-.19,0-.38-.01-.57.04-11.1.09-22.2.1-33.3.02-14.37.01-28.74.01-43.11.01-.18.02-.37.04-.55.02-3.75.1-7.5.05-11.25-.02-1.39.23-2.52,1.52-3.24,6.06,0,12.13.03,18.19.02,4.1,0,8.19-.07,12.29-.11.7,0,1.4,0,2.1,0,.85.17,1.7.17,2.55,0,1.98.02,3.95.05,5.93.06,3.09.01,6.19-.01,9.28.02,2.23.02,2.73.61,3.1,2.77.45,2.67-.09,5.31-.09,7.96-.02,16.93-.05,33.85-.06,50.78,0,.93-.18,1.9.31,2.78-.37,2.85.28,5.7.1,8.55-.77.88-.45,1.96-.39,2.92.14,2.33-.54,4.71.37,7Z"/>
      <path class="cls-12" d="m468.56,569.81c0-18.49-.03-36.99.04-55.48.02-4.48-.02-8.96.4-13.44.21-2.32.02-4.73-.05-7.08-.06-2.38.15-4.73.14-7.1,0-15.97,0-31.94,0-47.91,0-.43.01-.86,0-1.29-.07-1.95-.08-2.07-2.08-2-9.88.32-19.73-.75-29.61-.56-7.22.14-14.45.01-21.67,0,.23-.48.57-.84,1.03-1.09,1.12.03,2.23.07,3.35.07,16.31.01,32.63.02,48.94.03.38.33.77.67,1.15,1,.06.69.12,1.38.19,2.08,0,.35,0,.69,0,1.04-.38,3.1-.28,6.2-.06,9.3-.03,5.94-.08,11.88-.08,17.81-.02,23.84-.02,47.69-.02,71.53,0,.19.01.37.02.56,0,1.19-.01,2.38-.02,3.57,0,.19,0,.38,0,.56,0,0-.12-.04-.12-.04-.06.05-.18.12-.17.15.04.13.12.25.18.38-.01,1.72-.02,3.44-.03,5.16-.62.85-.65,1.7,0,2.55,0,6.26.02,12.53.02,18.79,0,.5.11,1.04-.38,1.42-.38-.01-.76-.03-1.14-.04Z"/>
      <path class="cls-11" d="m416.74,433.87c-.46.25-.81.61-1.03,1.09-.64.94-.35,2-.35,3-.03,12.87-.03,25.74-.05,38.6,0,1.01.2,2.07-.31,3.03-1.14-.72-.65-1.87-.65-2.82-.02-11.88,0-23.75.01-35.63,0-1.98,0-3.96.02-5.94.04-2.76.59-3.32,3.33-3.32,11.62,0,23.23.01,34.85.02,3.96,0,7.92.02,11.88,0,1.46-.01,2.72.32,3.66,1.5-.77.02-1.54.06-2.31.06-15.36-.01-30.71-.03-46.07-.02-.99,0-2.07-.34-2.97.44Z"/>
      <path class="cls-11" d="m360.44,497.67c-.49-.88-.31-1.85-.31-2.78.01-16.93.03-33.85.06-50.78,0-2.65.55-5.29.09-7.96-.37-2.16-.87-2.74-3.1-2.77-3.09-.03-6.19,0-9.28-.02-1.98,0-3.95-.04-5.93-.06-.85-.56-1.7-.56-2.55,0-.7,0-1.4,0-2.1,0-.84-.65-1.82-.37-2.74-.37-8.93-.04-17.85-.05-26.78-.06.55-.34,1.1-.67,1.66-1.01,6.72-.02,13.44-.03,20.15-.05.33,0,.66,0,.99,0,1.91,0,3.82,0,5.73,0,.85,0,1.69,0,2.54,0,.53,0,1.07,0,1.6,0,.33,0,.65,0,.98,0,.19,0,.38,0,.57,0,5.24,0,10.48,0,15.72.02,2.95.01,3.41.5,3.41,3.48,0,19.84,0,39.69-.05,59.53,0,.95.47,2.1-.65,2.82Z"/>
      <path class="cls-11" d="m238.7,549.67c-.02-.34-.03-.68-.05-1.02-.02-.73.26-1.52-.49-2.08-.01-.34-.03-.68-.04-1.01.04-.58.13-1.18-.47-1.57-.02-.34-.03-.69-.05-1.03.86-.57.15-1.07-.08-1.6,0-.31-.02-.61-.03-.92.19-.66-.18-1.15-.48-1.66-.02-.48-.05-.95-.07-1.43.2-.66-.15-1.16-.46-1.67-.02-.3-.04-.61-.06-.91.05-.55.1-1.09.14-1.64,1.18,2.31,1.36,4.91,1.92,7.38,2.81,12.41,5.49,24.85,8.18,37.29.83,3.84,1.57,7.69,2.36,11.54-.32.47-.7.91-.95,1.42-.46.9-1.04.52-1.63.23,0-.51-.01-1.02-.02-1.54.55-.38.49-.73-.06-1.05,0-.47-.02-.95-.03-1.42.1-.68-.17-1.08-.87-1.17-.08-1.56-.14-3.12-.6-4.63.55-.38.5-.72-.05-1.05.09-1.29-.39-2.45-.78-3.63-.33-.98-.22-1.98-.28-2.97.06-.62.19-1.26-.49-1.67-.08-1.27-.39-2.47-.99-3.6-.03-.72.25-1.52-.48-2.08-.01-.34-.03-.68-.04-1.02-.02-.54-.05-1.07-.07-1.61.01-.55.11-1.12-.46-1.48-.02-.37-.03-.73-.05-1.1.05-.56-.25-1.01-.46-1.49-.02-.54-.04-1.08-.07-1.61-.02-.3-.04-.61-.05-.91.19-.79-.18-1.29-.85-1.63-.02-.51-.05-1.02-.07-1.52.03-.58.14-1.18-.46-1.57-.02-.34-.03-.68-.05-1.02.03-.58.13-1.18-.47-1.57Z"/>
      <path class="cls-11" d="m415.3,537.29c0,.33,0,.67,0,1-.12,5.02-.27,10.03-.35,15.05-.02,1.53-.21,3.07.17,4.59-.14.35-.15.7,0,1.05-.48,2.4.07,4.84-.28,7.24-1.05-2.42-.98-5.06-.8-7.52.25-3.44.22-6.87.23-10.3.05-21.43.03-42.85.06-64.28,0-.95-.48-2.1.65-2.82.64,1.93.26,3.91.29,5.87.1,6.02.07,12.05.08,18.08,0,1.38,0,2.76,0,4.14,0,2.24,0,4.47-.01,6.71,0,.35,0,.7,0,1.05,0,2.23,0,4.47,0,6.7,0,1.39,0,2.77,0,4.16,0,.85,0,1.71,0,2.56,0,2.25,0,4.5-.01,6.74Z"/>
      <path class="cls-13" d="m414.83,566.22c.35-2.4-.2-4.84.28-7.24,1.04-.04,1.29.56,1.28,1.48-.03,2.32-.02,4.64,0,6.95.02,2.37.03,2.4,2.47,2.4,16.57,0,33.13,0,49.7,0,.38.01.76.03,1.14.04-.11.45-.47.69-.78.96-12.68.01-25.37,0-38.05.05-4.71.02-9.42-.2-14.13.11-.57-.25-1.03-.64-1.36-1.17l-.31-.56c-.07-1.01-.14-2.02-.22-3.03Z"/>
      <path class="cls-13" d="m358.51,569.81c.17.15.34.3.51.45-.17.21-.33.43-.5.64-1.03-.02-2.06-.04-3.1-.04-16.35-.02-32.69-.04-49.04-.06-.22-.31-.45-.62-.67-.93.22-.02.43-.04.65-.06,17.38,0,34.77,0,52.15,0Z"/>
      <path class="cls-3" d="m235.93,532.17c-.74-.04-1.23-.25-1.4-1.15-2.05-11.23-4.13-22.45-6.22-33.66-.23-1.25-.56-2.49-.85-3.73-.16-.69-.29-1.36.45-1.83,1.15,2.44,1.26,5.13,1.75,7.71,1.61,8.41,3.46,16.77,5.27,25.14.09.42.08.85.11,1.28-.03.57-.09,1.14.41,1.57.04.33.08.67.12,1-.03.57-.1,1.16.42,1.59.02.18.04.35.06.53-.04.52-.08,1.05-.12,1.57Z"/>
      <path class="cls-11" d="m442.22,591.51c-27.68,0-55.36-.01-83.04-.03-.75,0-1.56.19-2.21-.42,5.33-.03,10.67-.08,16-.08,22.21,0,44.42.03,66.62.05.86,0,1.72.04,2.58.06.02.14.03.27.04.41Z"/>
      <path class="cls-8" d="m442.22,591.51c-.01-.14-.03-.27-.04-.41,8.59-.03,17.18-.08,25.77-.08,18.81,0,37.63.02,56.44.03-.67.79-1.59.52-2.42.52-26.58,0-53.17-.03-79.75-.05Z"/>
      <path class="cls-8" d="m331.65,591.01c-13.5,0-27.01.03-40.51.03-12.47,0-24.94,0-37.41-.03-.92,0-1.9.29-2.73-.4,4.21-.04,8.43-.11,12.64-.11,21.77,0,43.54.01,65.31.04.91,0,1.91-.32,2.7.47Z"/>
      <path class="cls-11" d="m360.11,567.24c0-10.55-.01-21.1,0-31.64,0-.85-.12-1.72.23-2.54.62,1.43.74,2.95.74,4.49,0,7.72.03,15.45-.02,23.17-.01,2.2-.25,4.41-.94,6.53Z"/>
      <path class="cls-14" d="m416.73,570.98c4.71-.31,9.42-.1,14.13-.11,12.68-.04,25.37-.04,38.05-.05-.54.81-1.39.54-2.12.54-15.43,0-30.86-.01-46.29-.06-1.25,0-2.57.42-3.77-.31Z"/>
      <path class="cls-8" d="m306.38,570.79c16.35.02,32.69.04,49.04.06,1.03,0,2.06.03,3.1.04-.71.72-1.61.44-2.44.44-15.77,0-31.54,0-47.31-.02-.82,0-1.74.31-2.39-.53Z"/>
      <path class="cls-5" d="m416.74,433.87c.89-.77,1.97-.43,2.97-.44,15.36,0,30.71.01,46.07.02.77,0,1.54-.04,2.31-.06.38.09.77.14.94.57-16.31,0-32.63-.01-48.94-.03-1.12,0-2.23-.05-3.35-.07Z"/>
      <path class="cls-3" d="m307.81,432.88c8.93.02,17.85.02,26.78.06.92,0,1.9-.28,2.74.37-4.1.04-8.19.1-12.29.11-6.06.01-12.13-.01-18.19-.02.2-.4.58-.47.97-.52Z"/>
      <path class="cls-8" d="m329.62,431.81c-6.72.02-13.44.03-20.15.05.45-.55,1.07-.47,1.67-.47,5.6,0,11.19,0,16.79,0,.6,0,1.22-.06,1.7.42Z"/>
      <path class="cls-11" d="m360.52,516.15c-.91-2.29-.23-4.67-.37-7-.06-.96-.37-2.04.39-2.92.31.18.52.45.52.8,0,2.78,0,5.56,0,8.33,0,.36-.22.62-.54.79Z"/>
      <path class="cls-10" d="m305.25,535.67c.01,5.65.03,11.31.04,16.96,0,.44-.07.85-.36,1.2-.33-3.86-.06-7.73-.09-11.59-.01-2.15.03-4.3.04-6.45.12-.04.25-.08.37-.12Z"/>
      <path class="cls-8" d="m470.3,447.39c-.21-3.1-.31-6.2.06-9.3.43,3.1.53,6.21-.06,9.3Z"/>
      <path class="cls-8" d="m305.25,535.67c-.12.04-.25.08-.37.12-.06-2.61-.45-5.23.22-7.82.37,2.56.06,5.13.14,7.7Z"/>
      <path class="cls-11" d="m360.33,531.16c-.23-1.52-.66-3.05.3-4.49.88,1.56.32,3.03-.3,4.49Z"/>
      <path class="cls-11" d="m355.44,591.06c-2.07.7-4.15.68-6.22,0,2.07-.16,4.15-.14,6.22,0Z"/>
      <path class="cls-8" d="m336.33,431.82c-1.91,0-3.82,0-5.73,0,1.91-.67,3.82-.67,5.73,0Z"/>
      <path class="cls-10" d="m304.93,554.81c.59,1.74.58,3.48,0,5.22-.25-1.74-.23-3.48,0-5.22Z"/>
      <path class="cls-3" d="m236.59,533.13c-.05.55-.09,1.09-.14,1.64-.48-.11-1.07,0-1.27-.64-.25-.79.53-.96.87-1.4.16-.05.32-.07.48-.06.05.15.07.3.06.45Z"/>
      <path class="cls-15" d="m470.05,549.64c-.66-.85-.63-1.7,0-2.55.05.68.11,1.36.16,2.04,0,.19,0,.38,0,.57l-.15-.06Z"/>
      <path class="cls-8" d="m470.36,437.05c-.06-.69-.12-1.38-.19-2.08.73.63.61,1.34.19,2.08Z"/>
      <path class="cls-11" d="m236.53,532.68c-.16-.01-.33,0-.48.06-.04-.19-.07-.38-.11-.57.04-.52.08-1.05.12-1.57.72.57.54,1.34.48,2.09Z"/>
      <path class="cls-8" d="m340.47,431.81c-.53,0-1.07,0-1.6,0,.53-.53,1.06-.53,1.6,0Z"/>
      <path class="cls-11" d="m235.45,527.48c-.49-.43-.43-1.01-.41-1.57.55.42.53.98.41,1.57Z"/>
      <path class="cls-11" d="m235.98,530.07c-.52-.43-.45-1.01-.42-1.59.56.42.52,1,.42,1.59Z"/>
      <path class="cls-10" d="m304.91,562.04c.39.37.4.73,0,1.1-.14-.37-.14-.73,0-1.1Z"/>
      <path class="cls-10" d="m304.91,564.11c.41.36.41.72,0,1.09-.14-.36-.14-.72,0-1.09Z"/>
      <path class="cls-10" d="m304.91,568.76c.3.24.46.54.46.93-.4-.19-.63-.46-.46-.93Z"/>
      <path class="cls-15" d="m470.08,541.93c-.06-.13-.14-.25-.18-.38,0-.03.11-.1.17-.15,0,.18,0,.36,0,.53Z"/>
      <path class="cls-8" d="m305.27,447.89c-.01.18-.02.37-.04.55-.05-.13-.12-.26-.14-.4,0-.04.12-.1.18-.15Z"/>
      <path class="cls-8" d="m470.21,537.3c0-.19-.01-.37-.02-.56.06.13.14.26.17.39.01.04-.1.11-.16.17Z"/>
      <path class="cls-8" d="m470.19,541.43c0-.19,0-.38,0-.56.06.13.13.26.16.4,0,.04-.11.11-.16.16Z"/>
      <path class="cls-10" d="m415.05,569.25l.31.56c-.26-.1-.42-.25-.31-.56Z"/>
      <path class="cls-8" d="m305.11,526.4c0,.19,0,.38,0,.57-.06-.13-.13-.27-.16-.41,0-.04.1-.11.16-.17Z"/>
      <path class="cls-8" d="m305.12,524.85c0,.19,0,.38.01.57-.06-.13-.14-.26-.17-.4,0-.04.1-.11.16-.17Z"/>
      <path class="cls-8" d="m342.02,431.82c-.19,0-.38,0-.57,0,.19-.24.38-.24.57,0Z"/>
      <path class="cls-8" d="m470.2,549.7c0-.19,0-.38,0-.57.05.13.13.26.15.4,0,.05-.1.11-.15.17Z"/>
      <path class="cls-3" d="m241.8,566.2c.74.56.46,1.35.48,2.08-1.45-.39-1.24-1.17-.48-2.08Z"/>
      <path class="cls-3" d="m236.5,535.68c.31.52.66,1.02.46,1.67-.48-.11-1.08,0-1.26-.64-.19-.67.26-.9.8-1.03Z"/>
      <path class="cls-3" d="m237.03,538.78c.3.51.67,1.01.48,1.66-.56-.11-1.29,0-1.32-.87-.02-.54.41-.68.84-.79Z"/>
      <path class="cls-3" d="m237.53,541.36c.22.52.94,1.02.08,1.6-.41-.06-.82-.13-.9-.63-.11-.64.32-.84.83-.96Z"/>
      <path class="cls-3" d="m238.17,546.57c.75.56.47,1.35.49,2.08-1.43-.4-1.23-1.17-.49-2.08Z"/>
      <path class="cls-3" d="m239.75,555.35c.67.34,1.04.84.85,1.63-1.51-.33-1.6-.5-.85-1.63Z"/>
      <path class="cls-3" d="m239.21,552.25c.6.39.5.99.46,1.57-1.07-.25-1.35-.74-.46-1.57Z"/>
      <path class="cls-3" d="m241.68,563.57c.02.54.05,1.07.07,1.61-.41-.06-.83-.13-.92-.64-.11-.65.33-.85.84-.97Z"/>
      <path class="cls-3" d="m238.7,549.67c.6.39.5.99.47,1.57-1.08-.25-1.35-.74-.47-1.57Z"/>
      <path class="cls-9" d="m243.28,571.87c.68.4.56,1.04.49,1.67-1.02-.3-1.27-.83-.49-1.67Z"/>
      <path class="cls-3" d="m240.65,557.89c.02.54.04,1.08.07,1.61-.41-.07-.83-.14-.91-.65-.11-.65.33-.84.85-.97Z"/>
      <path class="cls-3" d="m237.66,543.99c.6.39.51.99.47,1.57-1.08-.25-1.34-.74-.47-1.57Z"/>
      <path class="cls-9" d="m246.38,588.4c.55.32.61.67.06,1.05-.55-.32-.56-.67-.06-1.05Z"/>
      <path class="cls-9" d="m245.48,585.81c.7.08.97.49.87,1.17-.61-.15-1-.47-.87-1.17Z"/>
      <path class="cls-9" d="m244.83,580.14c.55.32.6.67.05,1.05-.54-.33-.55-.67-.05-1.05Z"/>
      <path class="cls-3" d="m241.18,560.99c.02.37.03.73.05,1.1-.37-.08-.85-.1-.77-.64.05-.34.42-.4.73-.46Z"/>
      <path class="cls-13" d="m415.12,557.93c-.38-1.52-.2-3.06-.17-4.59.08-5.02.23-10.03.35-15.05.87.1,1.09.66,1.08,1.44-.01,5.57-.01,11.14,0,16.72,0,.91-.23,1.52-1.27,1.48Z"/>
      <path class="cls-13" d="m415.3,537.29c0-2.25,0-4.5.01-6.74.33.04.79.07.85.42.33,1.89.14,3.8.1,5.7-.01.51-.55.55-.96.62Z"/>
      <path class="cls-13" d="m415.32,527.99c0-1.39,0-2.77,0-4.16,1.51,1.21,1.51,2.96,0,4.16Z"/>
      <path class="cls-13" d="m415.36,509.38c0-1.38,0-2.76,0-4.14.24.08.66.11.69.24.29,1.13.31,2.29.16,3.44-.05.35-.51.39-.85.45Z"/>
      <path class="cls-13" d="m415.34,517.13c0-.35,0-.7,0-1.05.32.04.73.06.8.41.1.58-.42.56-.8.64Z"/>
      <path class="cls-4" d="m358.51,569.81c-17.38,0-34.77,0-52.15,0,0-26.33-.43-52.67.13-78.99.38-17.8.07-35.59.37-53.38.04-2.41.04-2.44,2.44-2.44,15.58,0,31.15,0,46.73,0,2.48,0,2.5.03,2.5,2.64,0,17.3,0,34.59,0,51.89,0,26.76,0,53.52-.01,80.29Z"/>
      <path class="cls-3" d="m339.43,433.31c.85-.55,1.7-.56,2.55,0-.85.17-1.7.17-2.55,0Z"/>
    </g>
  </g>
</svg>